<svg xmlns="http://www.w3.org/2000/svg" width="24" height="24" viewBox="0 0 24 24"><path d="M7 13.5c0-.828-.672-1.5-1.5-1.5s-1.5.672-1.5 1.5.672 1.5 1.5 1.5 1.5-.672 1.5-1.5zm9 1c0-.276-.224-.5-.5-.5h-7c-.276 0-.5.224-.5.5s.224.5.5.5h7c.276 0 .5-.224.5-.5zm4-1c0-.828-.672-1.5-1.5-1.5s-1.5.672-1.5 1.5.672 1.5 1.5 1.5 1.5-.672 1.5-1.5zm-17.298-6.5h-2.202c-.276 0-.5.224-.5.5v.511c0 .793.926.989 1.616.989l1.086-2zm19.318 3.168c-.761-1.413-1.699-3.17-2.684-4.812-.786-1.312-1.37-1.938-2.751-2.187-1.395-.25-2.681-.347-4.585-.347s-3.19.097-4.585.347c-1.381.248-1.965.875-2.751 2.187-.981 1.637-1.913 3.382-2.684 4.812-.687 1.273-.98 2.412-.98 3.806 0 1.318.42 2.415 1 3.817v2.209c0 .552.448 1 1 1h1.5c.552 0 1-.448 1-1v-1h13v1c0 .552.448 1 1 1h1.5c.552 0 1-.448 1-1v-2.209c.58-1.403 1-2.499 1-3.817 0-1.394-.293-2.533-.98-3.806zm-15.641-3.784c.67-1.117.852-1.149 1.39-1.246 1.268-.227 2.455-.316 4.231-.316s2.963.088 4.231.316c.538.097.72.129 1.39 1.246.408.681.81 1.388 1.195 2.081-1.456.22-4.02.535-6.816.535-3.048 0-5.517-.336-6.805-.555.382-.686.779-1.386 1.184-2.061zm11.595 10.616h-11.948c-1.671 0-3.026-1.354-3.026-3.026 0-1.641.506-2.421 1.184-3.678 1.041.205 3.967.704 7.816.704 3.481 0 6.561-.455 7.834-.672.664 1.231 1.166 2.01 1.166 3.646 0 1.672-1.355 3.026-3.026 3.026zm5.526-10c.276 0 .5.224.5.5v.511c0 .793-.926.989-1.616.989l-1.086-2h2.202z"/></svg>