<?xml version="1.0" encoding="UTF-8" standalone="no"?>
<!DOCTYPE svg PUBLIC "-//W3C//DTD SVG 1.1//EN"
 "http://www.w3.org/Graphics/SVG/1.1/DTD/svg11.dtd">
<!-- Generated by graphviz version 2.40.1 (20161225.0304)
 -->
<!-- Title: table_dependencies Pages: 1 -->
<svg width="8219pt" height="1040pt"
 viewBox="0.00 0.00 8219.06 1039.71" xmlns="http://www.w3.org/2000/svg" xmlns:xlink="http://www.w3.org/1999/xlink">
<g id="graph0" class="graph" transform="scale(1 1) rotate(0) translate(4 1035.713)">
<title>table_dependencies</title>
<polygon fill="#ffffff" stroke="transparent" points="-4,4 -4,-1035.713 8215.0602,-1035.713 8215.0602,4 -4,4"/>
<!-- n0 -->
<g id="node1" class="node">
<title>n0</title>
<polygon fill="none" stroke="#000000" points="134.9727,-745.4121 .0273,-709.4121 134.9727,-673.4121 269.918,-709.4121 134.9727,-745.4121"/>
<text text-anchor="middle" x="134.9727" y="-712.2121" font-family="Times,serif" font-size="14.00" fill="#000000">l__p_misc__p_ifaces</text>
<text text-anchor="middle" x="134.9727" y="-698.2121" font-family="Times,serif" font-size="14.00" fill="#000000">q/q_42.sql</text>
</g>
<!-- n1 -->
<g id="node2" class="node">
<title>n1</title>
<ellipse fill="none" stroke="#000000" cx="4854.9727" cy="-539.3931" rx="96.4587" ry="25.4118"/>
<text text-anchor="middle" x="4854.9727" y="-542.1931" font-family="Times,serif" font-size="14.00" fill="#000000">aai_vm</text>
<text text-anchor="middle" x="4854.9727" y="-528.1931" font-family="Times,serif" font-size="14.00" fill="#000000">q/q_11.sql q/q_13.sql</text>
</g>
<!-- n53 -->
<g id="node54" class="node">
<title>n53</title>
<polygon fill="none" stroke="#000000" points="5015.2007,-435.9727 4940.7446,-435.9727 4940.7446,-361.5166 5015.2007,-361.5166 5015.2007,-435.9727"/>
<text text-anchor="middle" x="4977.9727" y="-401.5446" font-family="Times,serif" font-size="14.00" fill="#000000">vm</text>
<text text-anchor="middle" x="4977.9727" y="-387.5446" font-family="Times,serif" font-size="14.00" fill="#000000">q/q_49.sql</text>
</g>
<!-- n1&#45;&gt;n53 -->
<g id="edge150" class="edge">
<title>n1&#45;&gt;n53</title>
<path fill="none" stroke="#000000" d="M4876.6795,-514.5717C4893.781,-495.0164 4918.0768,-467.2345 4938.5871,-443.7814"/>
<polygon fill="#000000" stroke="#000000" points="4941.4333,-445.8435 4945.3817,-436.0118 4936.164,-441.2354 4941.4333,-445.8435"/>
</g>
<!-- n2 -->
<g id="node3" class="node">
<title>n2</title>
<polygon fill="none" stroke="#000000" points="424.9727,-745.4121 287.9059,-709.4121 424.9727,-673.4121 562.0394,-709.4121 424.9727,-745.4121"/>
<text text-anchor="middle" x="424.9727" y="-712.2121" font-family="Times,serif" font-size="14.00" fill="#000000">l__p_server__p_iface</text>
<text text-anchor="middle" x="424.9727" y="-698.2121" font-family="Times,serif" font-size="14.00" fill="#000000">q/q_40.sql</text>
</g>
<!-- n3 -->
<g id="node4" class="node">
<title>n3</title>
<polygon fill="none" stroke="#000000" points="5956.7007,-432.4727 5889.2446,-432.4727 5889.2446,-365.0165 5956.7007,-365.0165 5956.7007,-432.4727"/>
<text text-anchor="middle" x="5922.9727" y="-401.5446" font-family="Times,serif" font-size="14.00" fill="#000000">vpe_vnf</text>
<text text-anchor="middle" x="5922.9727" y="-387.5446" font-family="Times,serif" font-size="14.00" fill="#000000">q/q_6.sql</text>
</g>
<!-- n20 -->
<g id="node21" class="node">
<title>n20</title>
<polygon fill="none" stroke="#000000" points="5732.4277,-173.8188 5613.5176,-173.8188 5613.5176,-149.8188 5732.4277,-149.8188 5732.4277,-143.8188 5750.4277,-161.8188 5732.4277,-179.8188 5732.4277,-173.8188"/>
<text text-anchor="middle" x="5681.9727" y="-164.6188" font-family="Times,serif" font-size="14.00" fill="#000000">composed_of</text>
<text text-anchor="middle" x="5681.9727" y="-150.6188" font-family="Times,serif" font-size="14.00" fill="#000000">q/q_62.sql q/q_61.sql</text>
</g>
<!-- n3&#45;&gt;n20 -->
<g id="edge53" class="edge">
<title>n3&#45;&gt;n20</title>
<path fill="none" stroke="#000000" d="M5889.0373,-365.5182C5886.0842,-363.3707 5883.0468,-361.3764 5879.9727,-359.6377 5831.5061,-332.2253 5802.3246,-359.7868 5759.9727,-323.6377 5718.6281,-288.3484 5697.4252,-226.1019 5688.1025,-189.9633"/>
<polygon fill="#000000" stroke="#000000" points="5691.4593,-188.956 5685.681,-180.0756 5684.6602,-190.6211 5691.4593,-188.956"/>
</g>
<!-- n28 -->
<g id="node29" class="node">
<title>n28</title>
<polygon fill="none" stroke="#000000" points="6246.6106,-323.4567 5923.3348,-323.4567 5923.3348,-.1809 6246.6106,-.1809 6246.6106,-323.4567"/>
<text text-anchor="middle" x="6084.9727" y="-164.6188" font-family="Times,serif" font-size="14.00" fill="#000000">service_resource_map</text>
<text text-anchor="middle" x="6084.9727" y="-150.6188" font-family="Times,serif" font-size="14.00" fill="#000000">q/q_50.sql q/q_54.sql q/q_51.sql q/q_53.sql q/q_52.sql</text>
</g>
<!-- n3&#45;&gt;n28 -->
<g id="edge86" class="edge">
<title>n3&#45;&gt;n28</title>
<path fill="none" stroke="#000000" d="M5946.1833,-364.7989C5952.7231,-355.2344 5960.3116,-344.1362 5968.5032,-332.1559"/>
<polygon fill="#000000" stroke="#000000" points="5971.5101,-333.9593 5974.2652,-323.729 5965.7317,-330.0083 5971.5101,-333.9593"/>
</g>
<!-- n37 -->
<g id="node38" class="node">
<title>n37</title>
<polygon fill="none" stroke="#000000" points="5887.4277,-173.8188 5768.5176,-173.8188 5768.5176,-149.8188 5887.4277,-149.8188 5887.4277,-143.8188 5905.4277,-161.8188 5887.4277,-179.8188 5887.4277,-173.8188"/>
<text text-anchor="middle" x="5836.9727" y="-164.6188" font-family="Times,serif" font-size="14.00" fill="#000000">vce_vpe_cnct</text>
<text text-anchor="middle" x="5836.9727" y="-150.6188" font-family="Times,serif" font-size="14.00" fill="#000000">q/q_58.sql q/q_57.sql</text>
</g>
<!-- n3&#45;&gt;n37 -->
<g id="edge109" class="edge">
<title>n3&#45;&gt;n37</title>
<path fill="none" stroke="#000000" d="M5910.651,-364.7989C5893.5378,-317.6531 5862.8979,-233.2416 5847.0631,-189.6176"/>
<polygon fill="#000000" stroke="#000000" points="5850.2569,-188.1581 5843.5548,-179.9524 5843.6769,-190.5465 5850.2569,-188.1581"/>
</g>
<!-- n47 -->
<g id="node48" class="node">
<title>n47</title>
<polygon fill="none" stroke="#000000" points="6538.4277,-173.8188 6419.5176,-173.8188 6419.5176,-149.8188 6538.4277,-149.8188 6538.4277,-143.8188 6556.4277,-161.8188 6538.4277,-179.8188 6538.4277,-173.8188"/>
<text text-anchor="middle" x="6487.9727" y="-164.6188" font-family="Times,serif" font-size="14.00" fill="#000000">vpe_crs_cnct</text>
<text text-anchor="middle" x="6487.9727" y="-150.6188" font-family="Times,serif" font-size="14.00" fill="#000000">q/q_60.sql q/q_59.sql</text>
</g>
<!-- n3&#45;&gt;n47 -->
<g id="edge138" class="edge">
<title>n3&#45;&gt;n47</title>
<path fill="none" stroke="#000000" d="M5957.1352,-383.5671C5977.5772,-375.1403 6004.3002,-365.2541 6028.9727,-359.6377 6111.8951,-340.7613 6340.1656,-372.2116 6409.9727,-323.6377 6455.057,-292.2666 6475.0253,-227.4741 6483.0974,-190.0919"/>
<polygon fill="#000000" stroke="#000000" points="6486.6104,-190.3755 6485.1528,-179.8814 6479.7481,-188.9941 6486.6104,-190.3755"/>
</g>
<!-- n4 -->
<g id="node5" class="node">
<title>n4</title>
<polygon fill="none" stroke="#000000" points="724.9727,-745.4121 579.8066,-709.4121 724.9727,-673.4121 870.1387,-709.4121 724.9727,-745.4121"/>
<text text-anchor="middle" x="724.9727" y="-712.2121" font-family="Times,serif" font-size="14.00" fill="#000000">l__p_switch__p_ifaces</text>
<text text-anchor="middle" x="724.9727" y="-698.2121" font-family="Times,serif" font-size="14.00" fill="#000000">q/q_41.sql</text>
</g>
<!-- n5 -->
<g id="node6" class="node">
<title>n5</title>
<polygon fill="none" stroke="#000000" points="1032.9727,-745.4121 887.8066,-709.4121 1032.9727,-673.4121 1178.1387,-709.4121 1032.9727,-745.4121"/>
<text text-anchor="middle" x="1032.9727" y="-712.2121" font-family="Times,serif" font-size="14.00" fill="#000000">l__v_switch__v_ifaces</text>
<text text-anchor="middle" x="1032.9727" y="-698.2121" font-family="Times,serif" font-size="14.00" fill="#000000">q/q_44.sql</text>
</g>
<!-- n6 -->
<g id="node7" class="node">
<title>n6</title>
<polygon fill="none" stroke="#000000" points="6693.2007,-410.7446 6636.7446,-410.7446 6636.7446,-386.7446 6693.2007,-386.7446 6693.2007,-380.7446 6711.2007,-398.7446 6693.2007,-416.7446 6693.2007,-410.7446"/>
<text text-anchor="middle" x="6673.9727" y="-401.5446" font-family="Times,serif" font-size="14.00" fill="#000000">v_cnct</text>
<text text-anchor="middle" x="6673.9727" y="-387.5446" font-family="Times,serif" font-size="14.00" fill="#000000">q/q_74.sql</text>
</g>
<!-- n7 -->
<g id="node8" class="node">
<title>n7</title>
<polygon fill="none" stroke="#000000" points="4545.2007,-173.8188 4488.7446,-173.8188 4488.7446,-149.8188 4545.2007,-149.8188 4545.2007,-143.8188 4563.2007,-161.8188 4545.2007,-179.8188 4545.2007,-173.8188"/>
<text text-anchor="middle" x="4525.9727" y="-164.6188" font-family="Times,serif" font-size="14.00" fill="#000000">host_link</text>
<text text-anchor="middle" x="4525.9727" y="-150.6188" font-family="Times,serif" font-size="14.00" fill="#000000">q/q_63.sql</text>
</g>
<!-- n8 -->
<g id="node9" class="node">
<title>n8</title>
<ellipse fill="none" stroke="#000000" cx="6493.9727" cy="-926.2572" rx="88.1114" ry="25.4118"/>
<text text-anchor="middle" x="6493.9727" y="-929.0572" font-family="Times,serif" font-size="14.00" fill="#000000">tmp_hosting_edges</text>
<text text-anchor="middle" x="6493.9727" y="-915.0572" font-family="Times,serif" font-size="14.00" fill="#000000">q/q_31.sql</text>
</g>
<!-- n8&#45;&gt;n7 -->
<g id="edge14" class="edge">
<title>n8&#45;&gt;n7</title>
<path fill="none" stroke="#000000" d="M6432.7434,-907.8819C6420.661,-904.9592 6407.9984,-902.3815 6395.9727,-900.8013 6326.8291,-891.7157 1424.1077,-914.2899 1374.9727,-864.8013 1298.9763,-788.2582 1240.5483,-822.5668 2047.9727,-640.9346 3023.0345,-421.5918 4227.6999,-212.7693 4478.7976,-169.841"/>
<polygon fill="#000000" stroke="#000000" points="4479.4186,-173.2858 4488.6865,-168.1519 4478.2399,-166.3857 4479.4186,-173.2858"/>
</g>
<!-- n29 -->
<g id="node30" class="node">
<title>n29</title>
<ellipse fill="none" stroke="#000000" cx="6488.9727" cy="-839.3455" rx="96.6037" ry="25.4118"/>
<text text-anchor="middle" x="6488.9727" y="-842.1455" font-family="Times,serif" font-size="14.00" fill="#000000">tmp_missing_pserver</text>
<text text-anchor="middle" x="6488.9727" y="-828.1455" font-family="Times,serif" font-size="14.00" fill="#000000">q/q_32.sql</text>
</g>
<!-- n8&#45;&gt;n29 -->
<g id="edge87" class="edge">
<title>n8&#45;&gt;n29</title>
<path fill="none" stroke="#000000" d="M6492.4995,-900.6509C6492.0408,-892.6769 6491.5262,-883.7325 6491.0349,-875.1927"/>
<polygon fill="#000000" stroke="#000000" points="6494.5212,-874.8515 6490.4525,-865.0691 6487.5327,-875.2536 6494.5212,-874.8515"/>
</g>
<!-- n9 -->
<g id="node10" class="node">
<title>n9</title>
<ellipse fill="none" stroke="#000000" cx="3895.9727" cy="-709.4121" rx="93.5358" ry="25.4118"/>
<text text-anchor="middle" x="3895.9727" y="-712.2121" font-family="Times,serif" font-size="14.00" fill="#000000">tmp_aai_vce_extract</text>
<text text-anchor="middle" x="3895.9727" y="-698.2121" font-family="Times,serif" font-size="14.00" fill="#000000">q/q_0.sql</text>
</g>
<!-- n9&#45;&gt;n1 -->
<g id="edge2" class="edge">
<title>n9&#45;&gt;n1</title>
<path fill="none" stroke="#000000" d="M3979.3138,-697.6763C4077.8426,-683.855 4246.788,-660.323 4391.9727,-640.9346 4515.9005,-624.3848 4549.3886,-634.0777 4670.9727,-604.9346 4712.8708,-594.8918 4758.5033,-578.6734 4793.8429,-564.8831"/>
<polygon fill="#000000" stroke="#000000" points="4795.5069,-567.9893 4803.526,-561.0651 4792.9391,-561.4773 4795.5069,-567.9893"/>
</g>
<!-- n9&#45;&gt;n7 -->
<g id="edge10" class="edge">
<title>n9&#45;&gt;n7</title>
<path fill="none" stroke="#000000" d="M3887.2141,-683.8282C3867.5706,-621.3406 3827.2384,-458.8199 3900.9727,-359.6377 3972.1142,-263.943 4345.5282,-192.3707 4478.7198,-169.5445"/>
<polygon fill="#000000" stroke="#000000" points="4479.3586,-172.9862 4488.6308,-167.8602 4478.1858,-166.0852 4479.3586,-172.9862"/>
</g>
<!-- n10 -->
<g id="node11" class="node">
<title>n10</title>
<polygon fill="none" stroke="#000000" points="5870.7007,-432.4727 5803.2446,-432.4727 5803.2446,-365.0165 5870.7007,-365.0165 5870.7007,-432.4727"/>
<text text-anchor="middle" x="5836.9727" y="-401.5446" font-family="Times,serif" font-size="14.00" fill="#000000">vce_vnf</text>
<text text-anchor="middle" x="5836.9727" y="-387.5446" font-family="Times,serif" font-size="14.00" fill="#000000">q/q_5.sql</text>
</g>
<!-- n9&#45;&gt;n10 -->
<g id="edge26" class="edge">
<title>n9&#45;&gt;n10</title>
<path fill="none" stroke="#000000" d="M3904.1123,-683.8574C3923.4984,-623.0368 3970.8761,-474.6667 3971.9727,-473.8516 4053.2249,-413.4528 5699.9111,-475.2997 5793.9727,-437.8516 5794.2979,-437.7221 5794.6221,-437.5889 5794.9455,-437.4523"/>
<polygon fill="#000000" stroke="#000000" points="5796.8508,-440.4026 5804.0235,-432.6049 5793.5537,-434.2278 5796.8508,-440.4026"/>
</g>
<!-- n12 -->
<g id="node13" class="node">
<title>n12</title>
<polygon fill="none" stroke="#000000" points="4112.5557,-604.9761 3981.3896,-604.9761 3981.3896,-473.81 4112.5557,-473.81 4112.5557,-604.9761"/>
<text text-anchor="middle" x="4046.9727" y="-542.1931" font-family="Times,serif" font-size="14.00" fill="#000000">service_subscription</text>
<text text-anchor="middle" x="4046.9727" y="-528.1931" font-family="Times,serif" font-size="14.00" fill="#000000">q/q_3.sql</text>
</g>
<!-- n9&#45;&gt;n12 -->
<g id="edge28" class="edge">
<title>n9&#45;&gt;n12</title>
<path fill="none" stroke="#000000" d="M3918.2532,-684.3252C3935.1279,-665.3251 3959.2194,-638.1991 3982.0055,-612.5431"/>
<polygon fill="#000000" stroke="#000000" points="3984.6833,-614.7987 3988.7069,-604.9977 3979.4494,-610.1504 3984.6833,-614.7987"/>
</g>
<!-- n9&#45;&gt;n20 -->
<g id="edge49" class="edge">
<title>n9&#45;&gt;n20</title>
<path fill="none" stroke="#000000" d="M3890.9127,-683.7239C3883.05,-635.5396 3874.0166,-531.2888 3928.9727,-473.8516 3988.4447,-411.6945 5270.2624,-221.6586 5603.4156,-173.1733"/>
<polygon fill="#000000" stroke="#000000" points="5604.0701,-176.615 5613.4623,-171.7122 5603.0627,-169.6879 5604.0701,-176.615"/>
</g>
<!-- n31 -->
<g id="node32" class="node">
<title>n31</title>
<polygon fill="none" stroke="#000000" points="4661.9845,-593.4049 4553.9608,-593.4049 4553.9608,-485.3812 4661.9845,-485.3812 4661.9845,-593.4049"/>
<text text-anchor="middle" x="4607.9727" y="-542.1931" font-family="Times,serif" font-size="14.00" fill="#000000">service_instance</text>
<text text-anchor="middle" x="4607.9727" y="-528.1931" font-family="Times,serif" font-size="14.00" fill="#000000">q/q_4.sql</text>
</g>
<!-- n9&#45;&gt;n31 -->
<g id="edge90" class="edge">
<title>n9&#45;&gt;n31</title>
<path fill="none" stroke="#000000" d="M3981.8793,-699.0786C4126.6416,-680.942 4412.6253,-641.7987 4506.9727,-604.9346 4519.898,-599.8843 4532.9117,-593.0457 4545.0988,-585.686"/>
<polygon fill="#000000" stroke="#000000" points="4547.1793,-588.5135 4553.8137,-580.2531 4543.4761,-582.5733 4547.1793,-588.5135"/>
</g>
<!-- n41 -->
<g id="node42" class="node">
<title>n41</title>
<polygon fill="none" stroke="#000000" points="4497.7007,-573.1212 4430.2446,-573.1212 4430.2446,-505.665 4497.7007,-505.665 4497.7007,-573.1212"/>
<text text-anchor="middle" x="4463.9727" y="-542.1931" font-family="Times,serif" font-size="14.00" fill="#000000">customer</text>
<text text-anchor="middle" x="4463.9727" y="-528.1931" font-family="Times,serif" font-size="14.00" fill="#000000">q/q_2.sql</text>
</g>
<!-- n9&#45;&gt;n41 -->
<g id="edge118" class="edge">
<title>n9&#45;&gt;n41</title>
<path fill="none" stroke="#000000" d="M3983.5654,-700.2455C4113.7881,-685.2566 4350.6638,-652.3472 4420.9727,-604.9346 4429.7798,-598.9955 4437.2138,-590.5851 4443.2932,-581.7624"/>
<polygon fill="#000000" stroke="#000000" points="4446.2969,-583.5614 4448.7075,-573.2445 4440.3893,-579.8063 4446.2969,-583.5614"/>
</g>
<!-- n46 -->
<g id="node47" class="node">
<title>n46</title>
<ellipse fill="none" stroke="#000000" cx="4270.9727" cy="-539.3931" rx="140.6869" ry="25.4118"/>
<text text-anchor="middle" x="4270.9727" y="-542.1931" font-family="Times,serif" font-size="14.00" fill="#000000">aai_p_server</text>
<text text-anchor="middle" x="4270.9727" y="-528.1931" font-family="Times,serif" font-size="14.00" fill="#000000">q/q_15.sql q/q_12.sql q/q_14.sql</text>
</g>
<!-- n9&#45;&gt;n46 -->
<g id="edge135" class="edge">
<title>n9&#45;&gt;n46</title>
<path fill="none" stroke="#000000" d="M3944.2296,-687.5332C4011.9532,-656.8284 4135.1996,-600.9504 4209.436,-567.2928"/>
<polygon fill="#000000" stroke="#000000" points="4211.0217,-570.4169 4218.6841,-563.0999 4208.1312,-564.0415 4211.0217,-570.4169"/>
</g>
<!-- n19 -->
<g id="node20" class="node">
<title>n19</title>
<polygon fill="none" stroke="#000000" points="6383.4277,-173.8188 6264.5176,-173.8188 6264.5176,-149.8188 6383.4277,-149.8188 6383.4277,-143.8188 6401.4277,-161.8188 6383.4277,-179.8188 6383.4277,-173.8188"/>
<text text-anchor="middle" x="6332.9727" y="-164.6188" font-family="Times,serif" font-size="14.00" fill="#000000">vplspe_vce_cnct</text>
<text text-anchor="middle" x="6332.9727" y="-150.6188" font-family="Times,serif" font-size="14.00" fill="#000000">q/q_55.sql q/q_56.sql</text>
</g>
<!-- n10&#45;&gt;n19 -->
<g id="edge45" class="edge">
<title>n10&#45;&gt;n19</title>
<path fill="none" stroke="#000000" d="M5870.3011,-364.9981C5873.4129,-362.9384 5876.6508,-361.1081 5879.9727,-359.6377 5956.7265,-325.6616 6187.2242,-371.7956 6255.9727,-323.6377 6300.8503,-292.2012 6320.423,-227.4333 6328.2683,-190.0728"/>
<polygon fill="#000000" stroke="#000000" points="6331.7795,-190.3542 6330.2619,-179.8686 6324.9093,-189.0119 6331.7795,-190.3542"/>
</g>
<!-- n10&#45;&gt;n20 -->
<g id="edge50" class="edge">
<title>n10&#45;&gt;n20</title>
<path fill="none" stroke="#000000" d="M5802.8846,-367.7C5785.6024,-351.5326 5766.8419,-333.1888 5759.9727,-323.6377 5728.9483,-280.5009 5704.6708,-223.1076 5691.9012,-189.5405"/>
<polygon fill="#000000" stroke="#000000" points="5695.0898,-188.0742 5688.3129,-179.9302 5688.532,-190.5228 5695.0898,-188.0742"/>
</g>
<!-- n10&#45;&gt;n28 -->
<g id="edge84" class="edge">
<title>n10&#45;&gt;n28</title>
<path fill="none" stroke="#000000" d="M5870.936,-366.2979C5883.7043,-354.0997 5899.2361,-339.2615 5916.041,-323.2071"/>
<polygon fill="#000000" stroke="#000000" points="5918.5037,-325.6948 5923.3167,-316.2562 5913.6682,-320.6333 5918.5037,-325.6948"/>
</g>
<!-- n10&#45;&gt;n37 -->
<g id="edge108" class="edge">
<title>n10&#45;&gt;n37</title>
<path fill="none" stroke="#000000" d="M5836.9727,-364.7989C5836.9727,-317.8521 5836.9727,-233.9533 5836.9727,-190.172"/>
<polygon fill="#000000" stroke="#000000" points="5840.4728,-189.9524 5836.9727,-179.9524 5833.4728,-189.9524 5840.4728,-189.9524"/>
</g>
<!-- n11 -->
<g id="node12" class="node">
<title>n11</title>
<polygon fill="none" stroke="#000000" points="1308.9727,-745.4121 1196.6308,-709.4121 1308.9727,-673.4121 1421.3145,-709.4121 1308.9727,-745.4121"/>
<text text-anchor="middle" x="1308.9727" y="-712.2121" font-family="Times,serif" font-size="14.00" fill="#000000">l__vm__v_ifaces</text>
<text text-anchor="middle" x="1308.9727" y="-698.2121" font-family="Times,serif" font-size="14.00" fill="#000000">q/q_43.sql</text>
</g>
<!-- n13 -->
<g id="node14" class="node">
<title>n13</title>
<polygon fill="none" stroke="#000000" points="6208.2007,-435.9727 6133.7446,-435.9727 6133.7446,-361.5166 6208.2007,-361.5166 6208.2007,-435.9727"/>
<text text-anchor="middle" x="6170.9727" y="-401.5446" font-family="Times,serif" font-size="14.00" fill="#000000">crs_pnf</text>
<text text-anchor="middle" x="6170.9727" y="-387.5446" font-family="Times,serif" font-size="14.00" fill="#000000">q/q_47.sql</text>
</g>
<!-- n13&#45;&gt;n20 -->
<g id="edge48" class="edge">
<title>n13&#45;&gt;n20</title>
<path fill="none" stroke="#000000" d="M6133.4876,-363.9959C6130.7152,-362.3443 6127.8673,-360.8665 6124.9727,-359.6377 6049.9479,-327.7897 5826.779,-370.3273 5759.9727,-323.6377 5714.9527,-292.1742 5694.9602,-227.4164 5686.8668,-190.0649"/>
<polygon fill="#000000" stroke="#000000" points="5690.2167,-188.9718 5684.8052,-179.8633 5683.3554,-190.3584 5690.2167,-188.9718"/>
</g>
<!-- n13&#45;&gt;n28 -->
<g id="edge85" class="edge">
<title>n13&#45;&gt;n28</title>
<path fill="none" stroke="#000000" d="M6157.4406,-361.4643C6154.3622,-352.9836 6150.8956,-343.4334 6147.1892,-333.2225"/>
<polygon fill="#000000" stroke="#000000" points="6150.4243,-331.8768 6143.7223,-323.6711 6143.8444,-334.2653 6150.4243,-331.8768"/>
</g>
<!-- n13&#45;&gt;n47 -->
<g id="edge139" class="edge">
<title>n13&#45;&gt;n47</title>
<path fill="none" stroke="#000000" d="M6208.5703,-396.0888C6259.783,-390.623 6351.7449,-373.9967 6409.9727,-323.6377 6451.0865,-288.0799 6472.3728,-225.9305 6481.7723,-189.8813"/>
<polygon fill="#000000" stroke="#000000" points="6485.208,-190.5677 6484.216,-180.0194 6478.4135,-188.884 6485.208,-190.5677"/>
</g>
<!-- n14 -->
<g id="node15" class="node">
<title>n14</title>
<ellipse fill="none" stroke="#000000" cx="7608.9727" cy="-539.3931" rx="114.8667" ry="25.4118"/>
<text text-anchor="middle" x="7608.9727" y="-542.1931" font-family="Times,serif" font-size="14.00" fill="#000000">tmp_edges_pairwise_vlan</text>
<text text-anchor="middle" x="7608.9727" y="-528.1931" font-family="Times,serif" font-size="14.00" fill="#000000">q/q_65.sql</text>
</g>
<!-- n15 -->
<g id="node16" class="node">
<title>n15</title>
<ellipse fill="none" stroke="#000000" cx="6471.9727" cy="-539.3931" rx="56.2865" ry="25.4118"/>
<text text-anchor="middle" x="6471.9727" y="-542.1931" font-family="Times,serif" font-size="14.00" fill="#000000">rct_crs_pnf</text>
<text text-anchor="middle" x="6471.9727" y="-528.1931" font-family="Times,serif" font-size="14.00" fill="#000000">q/q_35.sql</text>
</g>
<!-- n15&#45;&gt;n13 -->
<g id="edge31" class="edge">
<title>n15&#45;&gt;n13</title>
<path fill="none" stroke="#000000" d="M6451.3364,-515.3883C6438.3685,-501.5863 6420.6085,-484.8568 6401.9727,-473.8516 6343.325,-439.2176 6266.732,-418.3895 6218.1815,-407.7326"/>
<polygon fill="#000000" stroke="#000000" points="6218.7744,-404.2803 6208.2635,-405.6116 6217.3104,-411.1255 6218.7744,-404.2803"/>
</g>
<!-- n16 -->
<g id="node17" class="node">
<title>n16</title>
<ellipse fill="none" stroke="#000000" cx="6288.9727" cy="-539.3931" rx="70.8929" ry="25.4118"/>
<text text-anchor="middle" x="6288.9727" y="-542.1931" font-family="Times,serif" font-size="14.00" fill="#000000">rct_vplspe_pnf</text>
<text text-anchor="middle" x="6288.9727" y="-528.1931" font-family="Times,serif" font-size="14.00" fill="#000000">q/q_34.sql</text>
</g>
<!-- n30 -->
<g id="node31" class="node">
<title>n30</title>
<polygon fill="none" stroke="#000000" points="6116.1868,-437.9588 6037.7585,-437.9588 6037.7585,-359.5305 6116.1868,-359.5305 6116.1868,-437.9588"/>
<text text-anchor="middle" x="6076.9727" y="-401.5446" font-family="Times,serif" font-size="14.00" fill="#000000">vplspe_pnf</text>
<text text-anchor="middle" x="6076.9727" y="-387.5446" font-family="Times,serif" font-size="14.00" fill="#000000">q/q_48.sql</text>
</g>
<!-- n16&#45;&gt;n30 -->
<g id="edge89" class="edge">
<title>n16&#45;&gt;n30</title>
<path fill="none" stroke="#000000" d="M6263.7065,-515.5675C6248.6178,-502.1638 6228.6178,-485.7785 6208.9727,-473.8516 6174.253,-452.7727 6159.721,-458.8832 6124.9727,-437.8516 6124.8807,-437.7959 6124.7887,-437.7401 6124.6967,-437.6841"/>
<polygon fill="#000000" stroke="#000000" points="6126.4329,-434.6372 6116.1513,-432.0803 6122.5943,-440.4909 6126.4329,-434.6372"/>
</g>
<!-- n17 -->
<g id="node18" class="node">
<title>n17</title>
<ellipse fill="none" stroke="#000000" cx="6314.9727" cy="-926.2572" rx="72.1893" ry="25.4118"/>
<text text-anchor="middle" x="6314.9727" y="-929.0572" font-family="Times,serif" font-size="14.00" fill="#000000">tmp_host_iface</text>
<text text-anchor="middle" x="6314.9727" y="-915.0572" font-family="Times,serif" font-size="14.00" fill="#000000">q/q_38.sql</text>
</g>
<!-- n52 -->
<g id="node53" class="node">
<title>n52</title>
<ellipse fill="none" stroke="#000000" cx="1170.9727" cy="-839.3455" rx="63.5845" ry="25.4118"/>
<text text-anchor="middle" x="1170.9727" y="-842.1455" font-family="Times,serif" font-size="14.00" fill="#000000">tmp_iface_ip</text>
<text text-anchor="middle" x="1170.9727" y="-828.1455" font-family="Times,serif" font-size="14.00" fill="#000000">q/q_39.sql</text>
</g>
<!-- n17&#45;&gt;n52 -->
<g id="edge147" class="edge">
<title>n17&#45;&gt;n52</title>
<path fill="none" stroke="#000000" d="M6242.7224,-924.5463C6048.9473,-920.0145 5501.5099,-907.5839 5045.9727,-900.8013 4634.4433,-894.674 1752.2721,-897.179 1341.9727,-864.8013 1307.8182,-862.1061 1270.1246,-856.7535 1238.8383,-851.649"/>
<polygon fill="#000000" stroke="#000000" points="1239.356,-848.1872 1228.9181,-850.0042 1238.2109,-855.0929 1239.356,-848.1872"/>
</g>
<!-- n18 -->
<g id="node19" class="node">
<title>n18</title>
<polygon fill="none" stroke="#000000" points="4628.2007,-435.9727 4553.7446,-435.9727 4553.7446,-361.5166 4628.2007,-361.5166 4628.2007,-435.9727"/>
<text text-anchor="middle" x="4590.9727" y="-401.5446" font-family="Times,serif" font-size="14.00" fill="#000000">p_server</text>
<text text-anchor="middle" x="4590.9727" y="-387.5446" font-family="Times,serif" font-size="14.00" fill="#000000">q/q_45.sql</text>
</g>
<!-- n18&#45;&gt;n7 -->
<g id="edge12" class="edge">
<title>n18&#45;&gt;n7</title>
<path fill="none" stroke="#000000" d="M4580.7449,-361.4643C4567.6656,-313.7902 4545.3136,-232.3169 4533.6176,-189.6848"/>
<polygon fill="#000000" stroke="#000000" points="4536.9741,-188.6899 4530.953,-179.9723 4530.2235,-190.542 4536.9741,-188.6899"/>
</g>
<!-- n21 -->
<g id="node22" class="node">
<title>n21</title>
<ellipse fill="none" stroke="#000000" cx="5603.9727" cy="-709.4121" rx="120.3779" ry="25.4118"/>
<text text-anchor="middle" x="5603.9727" y="-712.2121" font-family="Times,serif" font-size="14.00" fill="#000000">rct_unclassified_hostnames</text>
<text text-anchor="middle" x="5603.9727" y="-698.2121" font-family="Times,serif" font-size="14.00" fill="#000000">q/q_30.sql</text>
</g>
<!-- n22 -->
<g id="node23" class="node">
<title>n22</title>
<polygon fill="none" stroke="#000000" points="6600.4277,-410.7446 6481.5176,-410.7446 6481.5176,-386.7446 6600.4277,-386.7446 6600.4277,-380.7446 6618.4277,-398.7446 6600.4277,-416.7446 6600.4277,-410.7446"/>
<text text-anchor="middle" x="6549.9727" y="-401.5446" font-family="Times,serif" font-size="14.00" fill="#000000">plp_cnct</text>
<text text-anchor="middle" x="6549.9727" y="-387.5446" font-family="Times,serif" font-size="14.00" fill="#000000">q/q_75.sql q/q_76.sql</text>
</g>
<!-- n23 -->
<g id="node24" class="node">
<title>n23</title>
<ellipse fill="none" stroke="#000000" cx="4494.9727" cy="-709.4121" rx="94.1473" ry="25.4118"/>
<text text-anchor="middle" x="4494.9727" y="-712.2121" font-family="Times,serif" font-size="14.00" fill="#000000">tmp_aai_vpe_extract</text>
<text text-anchor="middle" x="4494.9727" y="-698.2121" font-family="Times,serif" font-size="14.00" fill="#000000">q/q_1.sql</text>
</g>
<!-- n23&#45;&gt;n1 -->
<g id="edge4" class="edge">
<title>n23&#45;&gt;n1</title>
<path fill="none" stroke="#000000" d="M4542.0364,-687.1851C4608.0655,-656.0012 4728.0172,-599.351 4798.6861,-565.9758"/>
<polygon fill="#000000" stroke="#000000" points="4800.3498,-569.0609 4807.8974,-561.6255 4797.3604,-562.7312 4800.3498,-569.0609"/>
</g>
<!-- n23&#45;&gt;n3 -->
<g id="edge6" class="edge">
<title>n23&#45;&gt;n3</title>
<path fill="none" stroke="#000000" d="M4581.4732,-699.2502C4711.9354,-683.2416 4966.5015,-649.345 5179.9727,-604.9346 5402.7852,-558.5807 5452.6952,-522.707 5674.9727,-473.8516 5765.3214,-453.9934 5796.9165,-478.5813 5879.9727,-437.8516 5880.0689,-437.8044 5880.1651,-437.7569 5880.2613,-437.7091"/>
<polygon fill="#000000" stroke="#000000" points="5882.1608,-440.6522 5888.9963,-432.5573 5878.6047,-434.6228 5882.1608,-440.6522"/>
</g>
<!-- n23&#45;&gt;n7 -->
<g id="edge13" class="edge">
<title>n23&#45;&gt;n7</title>
<path fill="none" stroke="#000000" d="M4498.4449,-683.7003C4501.1716,-662.5829 4504.8509,-631.8726 4506.9727,-604.9346 4519.2834,-448.6399 4524.0305,-260.6596 4525.4579,-190.2625"/>
<polygon fill="#000000" stroke="#000000" points="4528.9623,-190.0634 4525.6591,-179.9967 4521.9637,-189.9261 4528.9623,-190.0634"/>
</g>
<!-- n23&#45;&gt;n12 -->
<g id="edge29" class="edge">
<title>n23&#45;&gt;n12</title>
<path fill="none" stroke="#000000" d="M4411.7654,-697.2654C4335.4572,-683.6999 4220.7403,-657.0892 4121.8052,-604.9669"/>
<polygon fill="#000000" stroke="#000000" points="4123.3575,-601.8277 4112.8919,-600.1775 4120.0441,-607.9939 4123.3575,-601.8277"/>
</g>
<!-- n23&#45;&gt;n20 -->
<g id="edge52" class="edge">
<title>n23&#45;&gt;n20</title>
<path fill="none" stroke="#000000" d="M4581.0869,-698.727C4676.3992,-684.941 4833.2885,-656.3781 4959.9727,-604.9346 4978.7003,-597.3297 5497.9663,-275.8467 5644.0593,-185.3196"/>
<polygon fill="#000000" stroke="#000000" points="5646.0803,-188.1848 5652.7369,-179.9422 5642.393,-182.2347 5646.0803,-188.1848"/>
</g>
<!-- n23&#45;&gt;n31 -->
<g id="edge91" class="edge">
<title>n23&#45;&gt;n31</title>
<path fill="none" stroke="#000000" d="M4511.6462,-684.3252C4526.0623,-662.6348 4547.5168,-630.3546 4566.5212,-601.7607"/>
<polygon fill="#000000" stroke="#000000" points="4569.448,-603.6801 4572.0683,-593.4145 4563.6181,-599.8054 4569.448,-603.6801"/>
</g>
<!-- n23&#45;&gt;n41 -->
<g id="edge119" class="edge">
<title>n23&#45;&gt;n41</title>
<path fill="none" stroke="#000000" d="M4490.3316,-683.9585C4485.485,-657.3771 4477.7917,-615.1832 4471.9648,-583.2257"/>
<polygon fill="#000000" stroke="#000000" points="4475.3815,-582.4523 4470.1445,-573.2423 4468.4951,-583.7079 4475.3815,-582.4523"/>
</g>
<!-- n23&#45;&gt;n46 -->
<g id="edge136" class="edge">
<title>n23&#45;&gt;n46</title>
<path fill="none" stroke="#000000" d="M4463.354,-685.4131C4423.7006,-655.3157 4355.6353,-603.6531 4312.0046,-570.5369"/>
<polygon fill="#000000" stroke="#000000" points="4313.9688,-567.6338 4303.8874,-564.3758 4309.7367,-573.2096 4313.9688,-567.6338"/>
</g>
<!-- n24 -->
<g id="node25" class="node">
<title>n24</title>
<ellipse fill="none" stroke="#000000" cx="7830.9727" cy="-539.3931" rx="88.6843" ry="25.4118"/>
<text text-anchor="middle" x="7830.9727" y="-542.1931" font-family="Times,serif" font-size="14.00" fill="#000000">rct_unknown_ctags</text>
<text text-anchor="middle" x="7830.9727" y="-528.1931" font-family="Times,serif" font-size="14.00" fill="#000000">q/q_17.sql</text>
</g>
<!-- n25 -->
<g id="node26" class="node">
<title>n25</title>
<ellipse fill="none" stroke="#000000" cx="6142.9727" cy="-539.3931" rx="57.4808" ry="25.4118"/>
<text text-anchor="middle" x="6142.9727" y="-542.1931" font-family="Times,serif" font-size="14.00" fill="#000000">aai_crs_pnf</text>
<text text-anchor="middle" x="6142.9727" y="-528.1931" font-family="Times,serif" font-size="14.00" fill="#000000">q/q_8.sql</text>
</g>
<!-- n25&#45;&gt;n13 -->
<g id="edge30" class="edge">
<title>n25&#45;&gt;n13</title>
<path fill="none" stroke="#000000" d="M6148.0432,-513.9227C6151.7878,-495.113 6156.9952,-468.9558 6161.5011,-446.3217"/>
<polygon fill="#000000" stroke="#000000" points="6164.9944,-446.7002 6163.5143,-436.2092 6158.1291,-445.3334 6164.9944,-446.7002"/>
</g>
<!-- n26 -->
<g id="node27" class="node">
<title>n26</title>
<polygon fill="none" stroke="#000000" points="7654.2007,-746.6401 7579.7446,-746.6401 7579.7446,-672.1841 7654.2007,-672.1841 7654.2007,-746.6401"/>
<text text-anchor="middle" x="7616.9727" y="-712.2121" font-family="Times,serif" font-size="14.00" fill="#000000">v_lan</text>
<text text-anchor="middle" x="7616.9727" y="-698.2121" font-family="Times,serif" font-size="14.00" fill="#000000">q/q_16.sql</text>
</g>
<!-- n26&#45;&gt;n14 -->
<g id="edge35" class="edge">
<title>n26&#45;&gt;n14</title>
<path fill="none" stroke="#000000" d="M7615.217,-672.1007C7613.863,-643.3241 7612.0016,-603.7659 7610.664,-575.3381"/>
<polygon fill="#000000" stroke="#000000" points="7614.1454,-574.858 7610.1791,-565.0336 7607.1531,-575.1871 7614.1454,-574.858"/>
</g>
<!-- n26&#45;&gt;n24 -->
<g id="edge72" class="edge">
<title>n26&#45;&gt;n24</title>
<path fill="none" stroke="#000000" d="M7654.2486,-679.7971C7693.0427,-648.9758 7753.4952,-600.9475 7792.6673,-569.826"/>
<polygon fill="#000000" stroke="#000000" points="7795.0352,-572.4149 7800.6877,-563.4539 7790.6808,-566.9341 7795.0352,-572.4149"/>
</g>
<!-- n38 -->
<g id="node39" class="node">
<title>n38</title>
<ellipse fill="none" stroke="#000000" cx="7399.9727" cy="-539.3931" rx="76.3945" ry="25.4118"/>
<text text-anchor="middle" x="7399.9727" y="-542.1931" font-family="Times,serif" font-size="14.00" fill="#000000">tmp_edges_vlan</text>
<text text-anchor="middle" x="7399.9727" y="-528.1931" font-family="Times,serif" font-size="14.00" fill="#000000">q/q_66.sql</text>
</g>
<!-- n26&#45;&gt;n38 -->
<g id="edge113" class="edge">
<title>n26&#45;&gt;n38</title>
<path fill="none" stroke="#000000" d="M7579.669,-680.1848C7540.1035,-649.1853 7477.9232,-600.4672 7438.0615,-569.2356"/>
<polygon fill="#000000" stroke="#000000" points="7440.1857,-566.4535 7430.1554,-563.0412 7435.8684,-571.9637 7440.1857,-566.4535"/>
</g>
<!-- n27 -->
<g id="node28" class="node">
<title>n27</title>
<ellipse fill="none" stroke="#000000" cx="6582.9727" cy="-709.4121" rx="140.6869" ry="25.4118"/>
<text text-anchor="middle" x="6582.9727" y="-712.2121" font-family="Times,serif" font-size="14.00" fill="#000000">rct_p_server</text>
<text text-anchor="middle" x="6582.9727" y="-698.2121" font-family="Times,serif" font-size="14.00" fill="#000000">q/q_18.sql q/q_25.sql q/q_33.sql</text>
</g>
<!-- n27&#45;&gt;n18 -->
<g id="edge41" class="edge">
<title>n27&#45;&gt;n18</title>
<path fill="none" stroke="#000000" d="M6521.0109,-686.5C6482.97,-669.4508 6436.1144,-642.5905 6406.9727,-604.9346 6369.8486,-556.9641 6417.009,-510.8903 6368.9727,-473.8516 6305.7309,-425.0885 5011.6376,-443.4065 4931.9727,-437.8516 4826.7374,-430.5137 4703.9804,-414.6234 4638.2585,-405.5181"/>
<polygon fill="#000000" stroke="#000000" points="4638.5992,-402.0318 4628.2117,-404.1173 4637.6325,-408.9647 4638.5992,-402.0318"/>
</g>
<!-- n32 -->
<g id="node33" class="node">
<title>n32</title>
<ellipse fill="none" stroke="#000000" cx="6773.9727" cy="-539.3931" rx="69.1055" ry="25.4118"/>
<text text-anchor="middle" x="6773.9727" y="-542.1931" font-family="Times,serif" font-size="14.00" fill="#000000">tmp_vp_edges</text>
<text text-anchor="middle" x="6773.9727" y="-528.1931" font-family="Times,serif" font-size="14.00" fill="#000000">q/q_72.sql</text>
</g>
<!-- n27&#45;&gt;n32 -->
<g id="edge94" class="edge">
<title>n27&#45;&gt;n32</title>
<path fill="none" stroke="#000000" d="M6611.1554,-684.3252C6645.4503,-653.7975 6703.3105,-602.2931 6740.0243,-569.6123"/>
<polygon fill="#000000" stroke="#000000" points="6742.3792,-572.2018 6747.5215,-562.9386 6737.725,-566.9732 6742.3792,-572.2018"/>
</g>
<!-- n33 -->
<g id="node34" class="node">
<title>n33</title>
<ellipse fill="none" stroke="#000000" cx="6614.9727" cy="-539.3931" rx="69.1055" ry="25.4118"/>
<text text-anchor="middle" x="6614.9727" y="-542.1931" font-family="Times,serif" font-size="14.00" fill="#000000">tmp_pp_edges</text>
<text text-anchor="middle" x="6614.9727" y="-528.1931" font-family="Times,serif" font-size="14.00" fill="#000000">q/q_70.sql</text>
</g>
<!-- n27&#45;&gt;n33 -->
<g id="edge99" class="edge">
<title>n27&#45;&gt;n33</title>
<path fill="none" stroke="#000000" d="M6587.7634,-683.9585C6593.2069,-655.0366 6602.1291,-607.6318 6608.2634,-575.0398"/>
<polygon fill="#000000" stroke="#000000" points="6611.739,-575.4955 6610.1492,-565.0206 6604.8598,-574.2007 6611.739,-575.4955"/>
</g>
<!-- n43 -->
<g id="node44" class="node">
<title>n43</title>
<ellipse fill="none" stroke="#000000" cx="6929.9727" cy="-539.3931" rx="69.1055" ry="25.4118"/>
<text text-anchor="middle" x="6929.9727" y="-542.1931" font-family="Times,serif" font-size="14.00" fill="#000000">tmp_pv_edges</text>
<text text-anchor="middle" x="6929.9727" y="-528.1931" font-family="Times,serif" font-size="14.00" fill="#000000">q/q_71.sql</text>
</g>
<!-- n27&#45;&gt;n43 -->
<g id="edge122" class="edge">
<title>n27&#45;&gt;n43</title>
<path fill="none" stroke="#000000" d="M6631.2487,-685.3673C6660.3128,-671.3988 6698.2904,-654.0292 6732.9727,-640.9346 6784.6669,-621.4168 6803.3831,-631.2459 6851.9727,-604.9346 6868.8751,-595.7819 6885.483,-582.5892 6899.0006,-570.4359"/>
<polygon fill="#000000" stroke="#000000" points="6901.607,-572.7932 6906.5813,-563.4387 6896.8591,-567.6494 6901.607,-572.7932"/>
</g>
<!-- n29&#45;&gt;n27 -->
<g id="edge80" class="edge">
<title>n29&#45;&gt;n27</title>
<path fill="none" stroke="#000000" d="M6507.0968,-814.293C6521.7619,-794.022 6542.5507,-765.2862 6558.6607,-743.0178"/>
<polygon fill="#000000" stroke="#000000" points="6561.5577,-744.9846 6564.5834,-734.831 6555.8862,-740.8816 6561.5577,-744.9846"/>
</g>
<!-- n30&#45;&gt;n19 -->
<g id="edge44" class="edge">
<title>n30&#45;&gt;n19</title>
<path fill="none" stroke="#000000" d="M6116.1676,-364.7571C6119.0624,-362.8947 6122.0108,-361.1644 6124.9727,-359.6377 6178.6433,-331.9737 6209.691,-362.417 6255.9727,-323.6377 6297.6457,-288.72 6318.3047,-226.071 6327.2205,-189.8209"/>
<polygon fill="#000000" stroke="#000000" points="6330.6692,-190.4427 6329.5264,-179.9097 6323.8513,-188.8564 6330.6692,-190.4427"/>
</g>
<!-- n30&#45;&gt;n20 -->
<g id="edge46" class="edge">
<title>n30&#45;&gt;n20</title>
<path fill="none" stroke="#000000" d="M6037.6525,-383.0997C6016.6437,-375.1991 5990.1868,-365.9723 5965.9727,-359.6377 5876.0555,-336.1147 5834.1135,-379.6873 5759.9727,-323.6377 5716.3854,-290.6862 5695.925,-227.043 5687.3518,-190.153"/>
<polygon fill="#000000" stroke="#000000" points="5690.7021,-189.0891 5685.1496,-180.0658 5683.8631,-190.5822 5690.7021,-189.0891"/>
</g>
<!-- n30&#45;&gt;n28 -->
<g id="edge83" class="edge">
<title>n30&#45;&gt;n28</title>
<path fill="none" stroke="#000000" d="M6078.2937,-359.6212C6078.5577,-351.803 6078.8505,-343.1315 6079.1618,-333.9106"/>
<polygon fill="#000000" stroke="#000000" points="6082.6669,-333.816 6079.5065,-323.7036 6075.6709,-333.5797 6082.6669,-333.816"/>
</g>
<!-- n31&#45;&gt;n28 -->
<g id="edge82" class="edge">
<title>n31&#45;&gt;n28</title>
<path fill="none" stroke="#000000" d="M4662.0896,-508.1535C4687.835,-494.9531 4719.5772,-481.0009 4749.9727,-473.8516 4815.7624,-458.3771 5910.0658,-475.8276 5965.9727,-437.8516 5986.8584,-423.6644 6008.9569,-380.7652 6028.3674,-332.8861"/>
<polygon fill="#000000" stroke="#000000" points="6031.6281,-334.1581 6032.0858,-323.5731 6025.1272,-331.5624 6031.6281,-334.1581"/>
</g>
<!-- n32&#45;&gt;n22 -->
<g id="edge57" class="edge">
<title>n32&#45;&gt;n22</title>
<path fill="none" stroke="#000000" d="M6747.6178,-515.8577C6732.2493,-502.7083 6712.1645,-486.4793 6692.9727,-473.8516 6675.6077,-462.4259 6630.3976,-439.0452 6595.4168,-421.3879"/>
<polygon fill="#000000" stroke="#000000" points="6596.817,-418.1743 6586.3112,-416.8039 6593.6694,-424.4267 6596.817,-418.1743"/>
</g>
<!-- n55 -->
<g id="node56" class="node">
<title>n55</title>
<polygon fill="none" stroke="#000000" points="6445.2007,-410.7446 6388.7446,-410.7446 6388.7446,-386.7446 6445.2007,-386.7446 6445.2007,-380.7446 6463.2007,-398.7446 6445.2007,-416.7446 6445.2007,-410.7446"/>
<text text-anchor="middle" x="6425.9727" y="-401.5446" font-family="Times,serif" font-size="14.00" fill="#000000">p_cnct</text>
<text text-anchor="middle" x="6425.9727" y="-387.5446" font-family="Times,serif" font-size="14.00" fill="#000000">q/q_73.sql</text>
</g>
<!-- n33&#45;&gt;n55 -->
<g id="edge156" class="edge">
<title>n33&#45;&gt;n55</title>
<path fill="none" stroke="#000000" d="M6589.2337,-515.6691C6574.4773,-502.6139 6555.2956,-486.5383 6536.9727,-473.8516 6510.141,-455.2734 6499.8491,-456.3648 6472.9727,-437.8516 6466.7223,-433.5462 6460.2971,-428.5951 6454.2822,-423.6949"/>
<polygon fill="#000000" stroke="#000000" points="6456.3101,-420.8287 6446.3894,-417.1098 6451.8256,-426.2036 6456.3101,-420.8287"/>
</g>
<!-- n34 -->
<g id="node35" class="node">
<title>n34</title>
<ellipse fill="none" stroke="#000000" cx="6326.9727" cy="-709.4121" rx="96.684" ry="25.4118"/>
<text text-anchor="middle" x="6326.9727" y="-712.2121" font-family="Times,serif" font-size="14.00" fill="#000000">rct_p_switch</text>
<text text-anchor="middle" x="6326.9727" y="-698.2121" font-family="Times,serif" font-size="14.00" fill="#000000">q/q_26.sql q/q_19.sql</text>
</g>
<!-- n34&#45;&gt;n15 -->
<g id="edge36" class="edge">
<title>n34&#45;&gt;n15</title>
<path fill="none" stroke="#000000" d="M6348.3679,-684.3252C6374.0039,-654.2659 6416.9851,-603.8685 6444.9063,-571.1296"/>
<polygon fill="#000000" stroke="#000000" points="6447.8347,-573.0896 6451.6607,-563.2097 6442.5086,-568.5472 6447.8347,-573.0896"/>
</g>
<!-- n34&#45;&gt;n16 -->
<g id="edge37" class="edge">
<title>n34&#45;&gt;n16</title>
<path fill="none" stroke="#000000" d="M6321.2837,-683.9585C6314.8195,-655.0366 6304.2243,-607.6318 6296.9399,-575.0398"/>
<polygon fill="#000000" stroke="#000000" points="6300.2976,-574.0164 6294.7005,-565.0206 6293.4661,-575.5433 6300.2976,-574.0164"/>
</g>
<!-- n34&#45;&gt;n32 -->
<g id="edge95" class="edge">
<title>n34&#45;&gt;n32</title>
<path fill="none" stroke="#000000" d="M6357.0465,-684.8801C6377.2845,-669.7112 6405.2459,-651.2312 6432.9727,-640.9346 6542.3332,-600.3222 6585.9341,-651.3224 6692.9727,-604.9346 6711.5986,-596.8626 6729.4595,-583.2733 6743.6471,-570.5548"/>
<polygon fill="#000000" stroke="#000000" points="6746.176,-572.983 6751.1327,-563.6191 6741.4185,-567.8483 6746.176,-572.983"/>
</g>
<!-- n34&#45;&gt;n33 -->
<g id="edge100" class="edge">
<title>n34&#45;&gt;n33</title>
<path fill="none" stroke="#000000" d="M6359.6556,-685.3688C6380.0199,-671.1429 6407.172,-653.5063 6432.9727,-640.9346 6476.9436,-619.5091 6494.4288,-629.0699 6536.9727,-604.9346 6553.5626,-595.523 6570.0162,-582.4108 6583.5047,-570.3856"/>
<polygon fill="#000000" stroke="#000000" points="6586.0572,-572.7945 6591.0824,-563.4672 6581.3375,-567.6249 6586.0572,-572.7945"/>
</g>
<!-- n34&#45;&gt;n43 -->
<g id="edge125" class="edge">
<title>n34&#45;&gt;n43</title>
<path fill="none" stroke="#000000" d="M6355.9826,-685.0768C6376.2128,-669.5788 6404.5736,-650.6505 6432.9727,-640.9346 6609.8177,-580.4322 6679.2609,-676.3863 6851.9727,-604.9346 6870.4518,-597.2897 6887.8226,-583.6133 6901.4596,-570.7243"/>
<polygon fill="#000000" stroke="#000000" points="6903.9455,-573.1885 6908.6349,-563.688 6899.0444,-568.1906 6903.9455,-573.1885"/>
</g>
<!-- n48 -->
<g id="node49" class="node">
<title>n48</title>
<polygon fill="none" stroke="#000000" points="5785.2007,-435.9727 5710.7446,-435.9727 5710.7446,-361.5166 5785.2007,-361.5166 5785.2007,-435.9727"/>
<text text-anchor="middle" x="5747.9727" y="-401.5446" font-family="Times,serif" font-size="14.00" fill="#000000">p_switch</text>
<text text-anchor="middle" x="5747.9727" y="-387.5446" font-family="Times,serif" font-size="14.00" fill="#000000">q/q_46.sql</text>
</g>
<!-- n34&#45;&gt;n48 -->
<g id="edge140" class="edge">
<title>n34&#45;&gt;n48</title>
<path fill="none" stroke="#000000" d="M6295.59,-685.209C6275.2714,-670.5601 6247.7049,-652.5301 6220.9727,-640.9346 6160.4514,-614.6824 6124.4793,-650.707 6076.9727,-604.9346 6033.2913,-562.8478 6084.6846,-513.7235 6038.9727,-473.8516 5958.4622,-403.6268 5897.8685,-478.5971 5794.711,-437.2338"/>
<polygon fill="#000000" stroke="#000000" points="5795.8218,-433.9016 5785.2527,-433.1635 5793.0548,-440.3315 5795.8218,-433.9016"/>
</g>
<!-- n35 -->
<g id="node36" class="node">
<title>n35</title>
<ellipse fill="none" stroke="#000000" cx="7078.9727" cy="-839.3455" rx="109.4232" ry="25.4118"/>
<text text-anchor="middle" x="7078.9727" y="-842.1455" font-family="Times,serif" font-size="14.00" fill="#000000">tmp_missing_hostnames</text>
<text text-anchor="middle" x="7078.9727" y="-828.1455" font-family="Times,serif" font-size="14.00" fill="#000000">q/q_24.sql</text>
</g>
<!-- n35&#45;&gt;n21 -->
<g id="edge54" class="edge">
<title>n35&#45;&gt;n21</title>
<path fill="none" stroke="#000000" d="M7003.4655,-820.9145C6989.4171,-818.0968 6974.8075,-815.5712 6960.9727,-813.8896 6691.0635,-781.0842 6001.353,-845.4023 5737.9727,-777.8896 5706.7556,-769.8878 5674.511,-753.6986 5649.4767,-739.0699"/>
<polygon fill="#000000" stroke="#000000" points="5650.9756,-735.8886 5640.595,-733.7691 5647.3882,-741.8995 5650.9756,-735.8886"/>
</g>
<!-- n35&#45;&gt;n27 -->
<g id="edge78" class="edge">
<title>n35&#45;&gt;n27</title>
<path fill="none" stroke="#000000" d="M7000.0718,-821.6867C6987.0351,-818.9524 6973.6426,-816.2546 6960.9727,-813.8896 6860.1258,-795.0655 6831.2061,-807.464 6732.9727,-777.8896 6699.9716,-767.9543 6664.8358,-752.2192 6636.8717,-738.3366"/>
<polygon fill="#000000" stroke="#000000" points="6638.1827,-735.0783 6627.6765,-733.7107 6635.0368,-741.3315 6638.1827,-735.0783"/>
</g>
<!-- n35&#45;&gt;n34 -->
<g id="edge102" class="edge">
<title>n35&#45;&gt;n34</title>
<path fill="none" stroke="#000000" d="M7002.4568,-821.1602C6988.7073,-818.3728 6974.4612,-815.7942 6960.9727,-813.8896 6728.0715,-781.0037 6656.1828,-852.0629 6432.9727,-777.8896 6408.1607,-769.6446 6383.4466,-754.2055 6364.131,-740.0715"/>
<polygon fill="#000000" stroke="#000000" points="6366.0256,-737.1172 6355.9278,-733.91 6361.8216,-742.7142 6366.0256,-737.1172"/>
</g>
<!-- n44 -->
<g id="node45" class="node">
<title>n44</title>
<polygon fill="none" stroke="#000000" points="7160.4277,-777.8672 7023.5176,-777.8672 7023.5176,-640.957 7160.4277,-640.957 7160.4277,-777.8672"/>
<text text-anchor="middle" x="7091.9727" y="-712.2121" font-family="Times,serif" font-size="14.00" fill="#000000">v_switch</text>
<text text-anchor="middle" x="7091.9727" y="-698.2121" font-family="Times,serif" font-size="14.00" fill="#000000">q/q_28.sql q/q_21.sql</text>
</g>
<!-- n35&#45;&gt;n44 -->
<g id="edge127" class="edge">
<title>n35&#45;&gt;n44</title>
<path fill="none" stroke="#000000" d="M7081.541,-813.6748C7082.3072,-806.0167 7083.1902,-797.1917 7084.1113,-787.985"/>
<polygon fill="#000000" stroke="#000000" points="7087.6091,-788.1809 7085.1221,-777.8821 7080.6439,-787.4839 7087.6091,-788.1809"/>
</g>
<!-- n50 -->
<g id="node51" class="node">
<title>n50</title>
<ellipse fill="none" stroke="#000000" cx="7274.9727" cy="-709.4121" rx="96.684" ry="25.4118"/>
<text text-anchor="middle" x="7274.9727" y="-712.2121" font-family="Times,serif" font-size="14.00" fill="#000000">rct_vm</text>
<text text-anchor="middle" x="7274.9727" y="-698.2121" font-family="Times,serif" font-size="14.00" fill="#000000">q/q_20.sql q/q_27.sql</text>
</g>
<!-- n35&#45;&gt;n50 -->
<g id="edge144" class="edge">
<title>n35&#45;&gt;n50</title>
<path fill="none" stroke="#000000" d="M7115.3794,-815.2105C7147.9358,-793.6281 7195.7435,-761.9352 7230.5422,-738.8662"/>
<polygon fill="#000000" stroke="#000000" points="7232.6909,-741.6411 7239.0918,-733.1984 7228.8231,-735.8066 7232.6909,-741.6411"/>
</g>
<!-- n56 -->
<g id="node57" class="node">
<title>n56</title>
<polygon fill="none" stroke="#000000" points="6878.4277,-777.8672 6741.5176,-777.8672 6741.5176,-640.957 6878.4277,-640.957 6878.4277,-777.8672"/>
<text text-anchor="middle" x="6809.9727" y="-712.2121" font-family="Times,serif" font-size="14.00" fill="#000000">p_misc</text>
<text text-anchor="middle" x="6809.9727" y="-698.2121" font-family="Times,serif" font-size="14.00" fill="#000000">q/q_29.sql q/q_22.sql</text>
</g>
<!-- n35&#45;&gt;n56 -->
<g id="edge157" class="edge">
<title>n35&#45;&gt;n56</title>
<path fill="none" stroke="#000000" d="M6999.7511,-821.6783C6964.1692,-811.8088 6922.5152,-797.4792 6887.9727,-777.8896 6887.7767,-777.7785 6887.5808,-777.6669 6887.385,-777.5547"/>
<polygon fill="#000000" stroke="#000000" points="6888.9778,-774.4253 6878.6262,-772.1683 6885.3109,-780.3881 6888.9778,-774.4253"/>
</g>
<!-- n36 -->
<g id="node37" class="node">
<title>n36</title>
<ellipse fill="none" stroke="#000000" cx="6950.9727" cy="-709.4121" rx="54.4077" ry="25.4118"/>
<text text-anchor="middle" x="6950.9727" y="-712.2121" font-family="Times,serif" font-size="14.00" fill="#000000">tmp_edges</text>
<text text-anchor="middle" x="6950.9727" y="-698.2121" font-family="Times,serif" font-size="14.00" fill="#000000">q/q_64.sql</text>
</g>
<!-- n36&#45;&gt;n32 -->
<g id="edge92" class="edge">
<title>n36&#45;&gt;n32</title>
<path fill="none" stroke="#000000" d="M6929.8378,-685.7944C6917.5943,-672.3699 6901.728,-655.4039 6886.9727,-640.9346 6861.7045,-616.1562 6831.8808,-589.4568 6809.2188,-569.6573"/>
<polygon fill="#000000" stroke="#000000" points="6811.3615,-566.8821 6801.5209,-562.9562 6806.7654,-572.1619 6811.3615,-566.8821"/>
</g>
<!-- n36&#45;&gt;n33 -->
<g id="edge98" class="edge">
<title>n36&#45;&gt;n33</title>
<path fill="none" stroke="#000000" d="M6934.4964,-685.0732C6922.9674,-669.9834 6906.2223,-651.5193 6886.9727,-640.9346 6811.2777,-599.3125 6774.3732,-641.2041 6695.9727,-604.9346 6677.6874,-596.4755 6659.9811,-582.9713 6645.8109,-570.4131"/>
<polygon fill="#000000" stroke="#000000" points="6648.0651,-567.7318 6638.3212,-563.5716 6643.3441,-572.9001 6648.0651,-567.7318"/>
</g>
<!-- n39 -->
<g id="node40" class="node">
<title>n39</title>
<ellipse fill="none" stroke="#000000" cx="7087.9727" cy="-539.3931" rx="69.1055" ry="25.4118"/>
<text text-anchor="middle" x="7087.9727" y="-542.1931" font-family="Times,serif" font-size="14.00" fill="#000000">tmp_vv_edges</text>
<text text-anchor="middle" x="7087.9727" y="-528.1931" font-family="Times,serif" font-size="14.00" fill="#000000">q/q_69.sql</text>
</g>
<!-- n36&#45;&gt;n39 -->
<g id="edge114" class="edge">
<title>n36&#45;&gt;n39</title>
<path fill="none" stroke="#000000" d="M6970.3108,-685.4131C6994.2453,-655.7101 7035.1044,-605.0034 7061.8206,-571.8482"/>
<polygon fill="#000000" stroke="#000000" points="7064.7401,-573.8032 7068.2892,-563.8205 7059.2895,-569.4111 7064.7401,-573.8032"/>
</g>
<!-- n36&#45;&gt;n43 -->
<g id="edge121" class="edge">
<title>n36&#45;&gt;n43</title>
<path fill="none" stroke="#000000" d="M6947.8287,-683.9585C6944.2564,-655.0366 6938.4012,-607.6318 6934.3756,-575.0398"/>
<polygon fill="#000000" stroke="#000000" points="6937.8376,-574.5161 6933.1381,-565.0206 6930.8904,-575.3743 6937.8376,-574.5161"/>
</g>
<!-- n49 -->
<g id="node50" class="node">
<title>n49</title>
<polygon fill="none" stroke="#000000" points="7450.4277,-410.7446 7331.5176,-410.7446 7331.5176,-386.7446 7450.4277,-386.7446 7450.4277,-380.7446 7468.4277,-398.7446 7450.4277,-416.7446 7450.4277,-410.7446"/>
<text text-anchor="middle" x="7399.9727" y="-401.5446" font-family="Times,serif" font-size="14.00" fill="#000000">vlan_cnct</text>
<text text-anchor="middle" x="7399.9727" y="-387.5446" font-family="Times,serif" font-size="14.00" fill="#000000">q/q_68.sql q/q_67.sql</text>
</g>
<!-- n38&#45;&gt;n49 -->
<g id="edge142" class="edge">
<title>n38&#45;&gt;n49</title>
<path fill="none" stroke="#000000" d="M7399.9727,-513.9227C7399.9727,-489.4022 7399.9727,-452.3952 7399.9727,-426.9845"/>
<polygon fill="#000000" stroke="#000000" points="7403.4728,-426.8743 7399.9727,-416.8743 7396.4728,-426.8743 7403.4728,-426.8743"/>
</g>
<!-- n39&#45;&gt;n6 -->
<g id="edge9" class="edge">
<title>n39&#45;&gt;n6</title>
<path fill="none" stroke="#000000" d="M7065.513,-515.0634C7050.6531,-500.5914 7029.9173,-483.2688 7007.9727,-473.8516 6889.4307,-422.9811 6838.0468,-489.7987 6719.9727,-437.8516 6712.282,-434.468 6704.8977,-429.3694 6698.3818,-423.9613"/>
<polygon fill="#000000" stroke="#000000" points="6700.4275,-421.0961 6690.6351,-417.0515 6695.768,-426.32 6700.4275,-421.0961"/>
</g>
<!-- n40 -->
<g id="node41" class="node">
<title>n40</title>
<ellipse fill="none" stroke="#000000" cx="4970.9727" cy="-926.2572" rx="66.1341" ry="25.4118"/>
<text text-anchor="middle" x="4970.9727" y="-929.0572" font-family="Times,serif" font-size="14.00" fill="#000000">tmp_ipv4_list</text>
<text text-anchor="middle" x="4970.9727" y="-915.0572" font-family="Times,serif" font-size="14.00" fill="#000000">q/q_36.sql</text>
</g>
<!-- n40&#45;&gt;n52 -->
<g id="edge148" class="edge">
<title>n40&#45;&gt;n52</title>
<path fill="none" stroke="#000000" d="M4904.4314,-925.6557C4441.5548,-921.4023 1709.6408,-895.1497 1341.9727,-864.8013 1307.8281,-861.9829 1270.1356,-856.617 1238.8474,-851.5356"/>
<polygon fill="#000000" stroke="#000000" points="1239.3629,-848.0734 1228.9266,-849.8994 1238.2237,-854.9801 1239.3629,-848.0734"/>
</g>
<!-- n42 -->
<g id="node43" class="node">
<title>n42</title>
<ellipse fill="none" stroke="#000000" cx="5957.9727" cy="-539.3931" rx="71.5875" ry="25.4118"/>
<text text-anchor="middle" x="5957.9727" y="-542.1931" font-family="Times,serif" font-size="14.00" fill="#000000">aai_vplspe_pnf</text>
<text text-anchor="middle" x="5957.9727" y="-528.1931" font-family="Times,serif" font-size="14.00" fill="#000000">q/q_7.sql</text>
</g>
<!-- n42&#45;&gt;n30 -->
<g id="edge88" class="edge">
<title>n42&#45;&gt;n30</title>
<path fill="none" stroke="#000000" d="M5978.7009,-514.894C5994.7944,-495.8727 6017.5909,-468.9291 6037.1765,-445.7805"/>
<polygon fill="#000000" stroke="#000000" points="6039.8939,-447.9874 6043.6811,-438.0925 6034.55,-443.466 6039.8939,-447.9874"/>
</g>
<!-- n43&#45;&gt;n22 -->
<g id="edge58" class="edge">
<title>n43&#45;&gt;n22</title>
<path fill="none" stroke="#000000" d="M6907.7439,-514.9949C6893.2781,-500.6871 6873.2038,-483.5651 6851.9727,-473.8516 6760.2805,-431.9009 6723.9362,-468.8081 6627.9727,-437.8516 6614.9908,-433.6638 6601.491,-427.5836 6589.4438,-421.4604"/>
<polygon fill="#000000" stroke="#000000" points="6591.0294,-418.3399 6580.5471,-416.8002 6587.7814,-424.5407 6591.0294,-418.3399"/>
</g>
<!-- n44&#45;&gt;n32 -->
<g id="edge97" class="edge">
<title>n44&#45;&gt;n32</title>
<path fill="none" stroke="#000000" d="M7023.0482,-645.9937C7020.0555,-644.1803 7017.0258,-642.4838 7013.9727,-640.9346 6948.1996,-607.5593 6918.1033,-637.5956 6851.9727,-604.9346 6834.6059,-596.3574 6817.8243,-583.1253 6804.305,-570.7901"/>
<polygon fill="#000000" stroke="#000000" points="6806.4233,-567.9775 6796.7423,-563.673 6801.626,-573.0751 6806.4233,-567.9775"/>
</g>
<!-- n44&#45;&gt;n39 -->
<g id="edge116" class="edge">
<title>n44&#45;&gt;n39</title>
<path fill="none" stroke="#000000" d="M7090.3572,-640.7489C7089.8267,-618.1982 7089.2586,-594.0527 7088.8101,-574.9872"/>
<polygon fill="#000000" stroke="#000000" points="7092.3085,-574.8751 7088.5742,-564.9602 7085.3104,-575.0398 7092.3085,-574.8751"/>
</g>
<!-- n44&#45;&gt;n43 -->
<g id="edge124" class="edge">
<title>n44&#45;&gt;n43</title>
<path fill="none" stroke="#000000" d="M7026.548,-640.7489C7003.601,-616.666 6978.9209,-590.7643 6960.2541,-571.1734"/>
<polygon fill="#000000" stroke="#000000" points="6962.5886,-568.5498 6953.1564,-563.7244 6957.5208,-573.3786 6962.5886,-568.5498"/>
</g>
<!-- n45 -->
<g id="node46" class="node">
<title>n45</title>
<ellipse fill="none" stroke="#000000" cx="5775.9727" cy="-539.3931" rx="91.7844" ry="25.4118"/>
<text text-anchor="middle" x="5775.9727" y="-542.1931" font-family="Times,serif" font-size="14.00" fill="#000000">aai_p_switch</text>
<text text-anchor="middle" x="5775.9727" y="-528.1931" font-family="Times,serif" font-size="14.00" fill="#000000">q/q_9.sql q/q_10.sql</text>
</g>
<!-- n45&#45;&gt;n48 -->
<g id="edge141" class="edge">
<title>n45&#45;&gt;n48</title>
<path fill="none" stroke="#000000" d="M5770.9021,-513.9227C5767.1575,-495.113 5761.9501,-468.9558 5757.4442,-446.3217"/>
<polygon fill="#000000" stroke="#000000" points="5760.8162,-445.3334 5755.431,-436.2092 5753.9509,-446.7002 5760.8162,-445.3334"/>
</g>
<!-- n46&#45;&gt;n18 -->
<g id="edge42" class="edge">
<title>n46&#45;&gt;n18</title>
<path fill="none" stroke="#000000" d="M4324.8944,-515.693C4386.3111,-488.6988 4485.6806,-445.0232 4544.0302,-419.3771"/>
<polygon fill="#000000" stroke="#000000" points="4545.6338,-422.4955 4553.3802,-415.2675 4542.8171,-416.0871 4545.6338,-422.4955"/>
</g>
<!-- n48&#45;&gt;n20 -->
<g id="edge47" class="edge">
<title>n48&#45;&gt;n20</title>
<path fill="none" stroke="#000000" d="M5737.5876,-361.4643C5724.3071,-313.7902 5701.6112,-232.3169 5689.7352,-189.6848"/>
<polygon fill="#000000" stroke="#000000" points="5693.0848,-188.6662 5687.0296,-179.9723 5686.3416,-190.5447 5693.0848,-188.6662"/>
</g>
<!-- n50&#45;&gt;n32 -->
<g id="edge93" class="edge">
<title>n50&#45;&gt;n32</title>
<path fill="none" stroke="#000000" d="M7245.4297,-684.9906C7225.1923,-669.6638 7197.0298,-650.9645 7168.9727,-640.9346 7035.4532,-593.2038 6982.2431,-660.9282 6851.9727,-604.9346 6833.9058,-597.169 6816.8199,-583.7866 6803.2705,-571.1307"/>
<polygon fill="#000000" stroke="#000000" points="6805.3367,-568.2591 6795.7208,-563.8111 6800.4641,-573.2848 6805.3367,-568.2591"/>
</g>
<!-- n50&#45;&gt;n39 -->
<g id="edge115" class="edge">
<title>n50&#45;&gt;n39</title>
<path fill="none" stroke="#000000" d="M7247.7813,-684.6899C7214.4435,-654.3794 7157.9343,-603.0017 7121.817,-570.1641"/>
<polygon fill="#000000" stroke="#000000" points="7123.7447,-567.1864 7113.9911,-563.0489 7119.0356,-572.3657 7123.7447,-567.1864"/>
</g>
<!-- n50&#45;&gt;n43 -->
<g id="edge123" class="edge">
<title>n50&#45;&gt;n43</title>
<path fill="none" stroke="#000000" d="M7243.6784,-685.0019C7223.3941,-670.2728 7195.8326,-652.2311 7168.9727,-640.9346 7102.1838,-612.845 7075.0717,-636.7448 7009.9727,-604.9346 6992.1418,-596.2217 6974.7949,-582.8144 6960.8379,-570.3907"/>
<polygon fill="#000000" stroke="#000000" points="6963.1898,-567.7986 6953.4513,-563.6259 6958.4621,-572.9609 6963.1898,-567.7986"/>
</g>
<!-- n50&#45;&gt;n53 -->
<g id="edge151" class="edge">
<title>n50&#45;&gt;n53</title>
<path fill="none" stroke="#000000" d="M7271.8671,-683.877C7264.2209,-633.5114 7239.4252,-522.0802 7165.9727,-473.8516 7097.9643,-429.1976 5783.2678,-441.046 5701.9727,-437.8516 5446.7446,-427.8226 5141.2525,-409.1224 5025.532,-401.7982"/>
<polygon fill="#000000" stroke="#000000" points="5025.4579,-398.2866 5015.2563,-401.1461 5025.0145,-405.2725 5025.4579,-398.2866"/>
</g>
<!-- n51 -->
<g id="node52" class="node">
<title>n51</title>
<ellipse fill="none" stroke="#000000" cx="2446.9727" cy="-926.2572" rx="66.1341" ry="25.4118"/>
<text text-anchor="middle" x="2446.9727" y="-929.0572" font-family="Times,serif" font-size="14.00" fill="#000000">tmp_ipv6_list</text>
<text text-anchor="middle" x="2446.9727" y="-915.0572" font-family="Times,serif" font-size="14.00" fill="#000000">q/q_37.sql</text>
</g>
<!-- n51&#45;&gt;n52 -->
<g id="edge149" class="edge">
<title>n51&#45;&gt;n52</title>
<path fill="none" stroke="#000000" d="M2380.4807,-924.6963C2208.4111,-920.1942 1734.5358,-904.851 1341.9727,-864.8013 1308.0236,-861.3378 1270.5008,-855.9297 1239.2749,-850.9875"/>
<polygon fill="#000000" stroke="#000000" points="1239.7978,-847.5267 1229.3703,-849.4023 1238.6915,-854.4387 1239.7978,-847.5267"/>
</g>
<!-- n52&#45;&gt;n0 -->
<g id="edge1" class="edge">
<title>n52&#45;&gt;n0</title>
<path fill="none" stroke="#000000" d="M1107.3635,-838.0432C930.532,-833.9348 435.792,-818.9926 278.9727,-777.8896 246.4936,-769.3768 212.4667,-753.5591 185.6493,-739.2694"/>
<polygon fill="#000000" stroke="#000000" points="187.3029,-736.1846 176.8437,-734.4946 183.9662,-742.3382 187.3029,-736.1846"/>
</g>
<!-- n52&#45;&gt;n2 -->
<g id="edge5" class="edge">
<title>n52&#45;&gt;n2</title>
<path fill="none" stroke="#000000" d="M1107.9169,-835.574C975.1632,-827.1964 670.8728,-805.5718 570.9727,-777.8896 538.37,-768.8555 504.0155,-753.0925 476.8274,-738.9659"/>
<polygon fill="#000000" stroke="#000000" points="478.372,-735.8236 467.8947,-734.25 475.1039,-742.0139 478.372,-735.8236"/>
</g>
<!-- n52&#45;&gt;n4 -->
<g id="edge7" class="edge">
<title>n52&#45;&gt;n4</title>
<path fill="none" stroke="#000000" d="M1111.2919,-830.5746C1051.5928,-820.9227 957.5891,-803.3261 878.9727,-777.8896 845.8135,-767.161 810.1729,-751.592 781.5381,-738.0093"/>
<polygon fill="#000000" stroke="#000000" points="783.0298,-734.843 772.4993,-733.6778 780.0047,-741.1557 783.0298,-734.843"/>
</g>
<!-- n52&#45;&gt;n5 -->
<g id="edge8" class="edge">
<title>n52&#45;&gt;n5</title>
<path fill="none" stroke="#000000" d="M1145.9819,-815.8155C1125.0962,-796.1506 1094.9775,-767.7925 1071.0849,-745.2965"/>
<polygon fill="#000000" stroke="#000000" points="1073.2458,-742.5239 1063.5659,-738.217 1068.4473,-747.6204 1073.2458,-742.5239"/>
</g>
<!-- n52&#45;&gt;n11 -->
<g id="edge27" class="edge">
<title>n52&#45;&gt;n11</title>
<path fill="none" stroke="#000000" d="M1195.9634,-815.8155C1217.4099,-795.6227 1248.5916,-766.2637 1272.7709,-743.4977"/>
<polygon fill="#000000" stroke="#000000" points="1275.4727,-745.7611 1280.3541,-736.3578 1270.6741,-740.6647 1275.4727,-745.7611"/>
</g>
<!-- n53&#45;&gt;n7 -->
<g id="edge11" class="edge">
<title>n53&#45;&gt;n7</title>
<path fill="none" stroke="#000000" d="M4940.5991,-379.1544C4857.5587,-335.627 4658.0721,-231.0617 4569.5505,-184.6611"/>
<polygon fill="#000000" stroke="#000000" points="4571.0613,-181.5014 4560.5794,-179.9587 4567.8114,-187.7013 4571.0613,-181.5014"/>
</g>
<!-- n53&#45;&gt;n20 -->
<g id="edge51" class="edge">
<title>n53&#45;&gt;n20</title>
<path fill="none" stroke="#000000" d="M5015.3257,-386.1738C5129.5337,-347.7379 5474.9977,-231.4747 5618.4578,-183.1943"/>
<polygon fill="#000000" stroke="#000000" points="5619.6602,-186.4826 5628.0214,-179.9757 5617.4274,-179.8482 5619.6602,-186.4826"/>
</g>
<!-- n54 -->
<g id="node55" class="node">
<title>n54</title>
<ellipse fill="none" stroke="#000000" cx="7383.9727" cy="-926.2572" rx="101.5225" ry="25.4118"/>
<text text-anchor="middle" x="7383.9727" y="-929.0572" font-family="Times,serif" font-size="14.00" fill="#000000">tmp_missing_host_pre</text>
<text text-anchor="middle" x="7383.9727" y="-915.0572" font-family="Times,serif" font-size="14.00" fill="#000000">q/q_23.sql</text>
</g>
<!-- n54&#45;&gt;n35 -->
<g id="edge105" class="edge">
<title>n54&#45;&gt;n35</title>
<path fill="none" stroke="#000000" d="M7316.6615,-907.0764C7269.7893,-893.7199 7207.1083,-875.8586 7157.8828,-861.8315"/>
<polygon fill="#000000" stroke="#000000" points="7158.8022,-858.4542 7148.2258,-859.0796 7156.8838,-865.1862 7158.8022,-858.4542"/>
</g>
<!-- n56&#45;&gt;n32 -->
<g id="edge96" class="edge">
<title>n56&#45;&gt;n32</title>
<path fill="none" stroke="#000000" d="M6795.4338,-640.7489C6790.6589,-618.1982 6785.5463,-594.0527 6781.5094,-574.9872"/>
<polygon fill="#000000" stroke="#000000" points="6784.8819,-574.0182 6779.3863,-564.9602 6778.0337,-575.4683 6784.8819,-574.0182"/>
</g>
<!-- n56&#45;&gt;n33 -->
<g id="edge101" class="edge">
<title>n56&#45;&gt;n33</title>
<path fill="none" stroke="#000000" d="M6741.1749,-648.1294C6738.4077,-645.696 6735.6656,-643.2904 6732.9727,-640.9346 6705.3763,-616.7928 6673.8903,-589.722 6650.3871,-569.6064"/>
<polygon fill="#000000" stroke="#000000" points="6652.6141,-566.9056 6642.7396,-563.0655 6648.0642,-572.2252 6652.6141,-566.9056"/>
</g>
<!-- n56&#45;&gt;n43 -->
<g id="edge126" class="edge">
<title>n56&#45;&gt;n43</title>
<path fill="none" stroke="#000000" d="M6858.4354,-640.7489C6875.0942,-617.1463 6892.9861,-591.7966 6906.7095,-572.3529"/>
<polygon fill="#000000" stroke="#000000" points="6909.6036,-574.322 6912.5106,-564.1338 6903.8846,-570.2855 6909.6036,-574.322"/>
</g>
<!-- n57 -->
<g id="node58" class="node">
<title>n57</title>
<polygon fill="none" stroke="#000000" points="1480.9727,-817.3455 1578.0737,-850.3455 1383.8716,-850.3455 1480.9727,-817.3455"/>
<text text-anchor="middle" x="1480.9727" y="-835.1455" font-family="Times,serif" font-size="14.00" fill="#000000">aai.pserver</text>
</g>
<!-- n57&#45;&gt;n9 -->
<g id="edge25" class="edge">
<title>n57&#45;&gt;n9</title>
<path fill="none" stroke="#000000" d="M1515.821,-829.1886C1536.5808,-823.6081 1563.5597,-817.1699 1587.9727,-813.8896 2060.4397,-750.406 2183.7307,-799.0762 2659.9727,-777.8896 3081.3975,-759.1417 3583.2079,-728.8861 3794.3828,-715.7913"/>
<polygon fill="#000000" stroke="#000000" points="3794.7588,-719.2748 3804.5227,-715.1619 3794.325,-712.2883 3794.7588,-719.2748"/>
</g>
<!-- n57&#45;&gt;n23 -->
<g id="edge68" class="edge">
<title>n57&#45;&gt;n23</title>
<path fill="none" stroke="#000000" d="M1515.7992,-829.0206C1536.5515,-823.3822 1563.5302,-816.9423 1587.9727,-813.8896 2119.6795,-747.4847 3464.6844,-818.6069 3998.9727,-777.8896 4142.0588,-766.9853 4306.8578,-741.6694 4405.8677,-725.0628"/>
<polygon fill="#000000" stroke="#000000" points="4406.5531,-728.4967 4415.8324,-723.3836 4405.3898,-721.5941 4406.5531,-728.4967"/>
</g>
<!-- n57&#45;&gt;n46 -->
<g id="edge133" class="edge">
<title>n57&#45;&gt;n46</title>
<path fill="none" stroke="#000000" d="M1516.8563,-829.3736C1537.5032,-823.9981 1564.0239,-817.7034 1587.9727,-813.8896 1727.4706,-791.6753 3985.0505,-639.6543 4121.9727,-604.9346 4154.8283,-596.6033 4189.6042,-581.6916 4217.2886,-568.1945"/>
<polygon fill="#000000" stroke="#000000" points="4218.9864,-571.2594 4226.3924,-563.6829 4215.8782,-564.9873 4218.9864,-571.2594"/>
</g>
<!-- n58 -->
<g id="node59" class="node">
<title>n58</title>
<polygon fill="none" stroke="#000000" points="5618.9727,-817.3455 5739.6926,-850.3455 5498.2527,-850.3455 5618.9727,-817.3455"/>
<text text-anchor="middle" x="5618.9727" y="-835.1455" font-family="Times,serif" font-size="14.00" fill="#000000">aai.l_interface</text>
</g>
<!-- n58&#45;&gt;n23 -->
<g id="edge69" class="edge">
<title>n58&#45;&gt;n23</title>
<path fill="none" stroke="#000000" d="M5574.0207,-829.5237C5549.0622,-824.3277 5517.4015,-818.1585 5488.9727,-813.8896 5164.1473,-765.1141 4776.21,-731.3465 4596.1001,-717.0609"/>
<polygon fill="#000000" stroke="#000000" points="4596.3542,-713.5701 4586.1096,-716.2716 4595.8028,-720.5484 4596.3542,-713.5701"/>
</g>
<!-- n59 -->
<g id="node60" class="node">
<title>n59</title>
<polygon fill="none" stroke="#000000" points="6314.9727,-987.713 6442.5108,-1020.713 6187.4346,-1020.713 6314.9727,-987.713"/>
<text text-anchor="middle" x="6314.9727" y="-1005.513" font-family="Times,serif" font-size="14.00" fill="#000000">rct.connections</text>
</g>
<!-- n59&#45;&gt;n17 -->
<g id="edge38" class="edge">
<title>n59&#45;&gt;n17</title>
<path fill="none" stroke="#000000" d="M6314.9727,-987.3484C6314.9727,-979.5908 6314.9727,-970.6859 6314.9727,-962.1177"/>
<polygon fill="#000000" stroke="#000000" points="6318.4728,-961.9332 6314.9727,-951.9332 6311.4728,-961.9332 6318.4728,-961.9332"/>
</g>
<!-- n59&#45;&gt;n36 -->
<g id="edge106" class="edge">
<title>n59&#45;&gt;n36</title>
<path fill="none" stroke="#000000" d="M6371.8489,-1002.4155C6562.7036,-977.6648 7169.9011,-896.6837 7196.9727,-864.8013 7298.7092,-744.9856 7120.8446,-836.726 7014.9727,-777.8896 6999.0711,-769.0527 6984.8526,-754.8745 6973.8797,-741.7055"/>
<polygon fill="#000000" stroke="#000000" points="6976.4562,-739.323 6967.4809,-733.6931 6970.9864,-743.6913 6976.4562,-739.323"/>
</g>
<!-- n59&#45;&gt;n40 -->
<g id="edge117" class="edge">
<title>n59&#45;&gt;n40</title>
<path fill="none" stroke="#000000" d="M6246.0103,-1005.4308C6017.3572,-991.2326 5285.1826,-945.7681 5046.7825,-930.9646"/>
<polygon fill="#000000" stroke="#000000" points="5046.6786,-927.4515 5036.4808,-930.3249 5046.2447,-934.438 5046.6786,-927.4515"/>
</g>
<!-- n59&#45;&gt;n51 -->
<g id="edge146" class="edge">
<title>n59&#45;&gt;n51</title>
<path fill="none" stroke="#000000" d="M6236.395,-1008.0176C5737.567,-997.2549 3017.0691,-938.5576 2523.7181,-927.913"/>
<polygon fill="#000000" stroke="#000000" points="2523.579,-924.4093 2513.5058,-927.6927 2523.4279,-931.4077 2523.579,-924.4093"/>
</g>
<!-- n59&#45;&gt;n54 -->
<g id="edge152" class="edge">
<title>n59&#45;&gt;n54</title>
<path fill="none" stroke="#000000" d="M6370.9249,-1002.1272C6408.0296,-997.3442 6457.8323,-991.3966 6501.9727,-987.713 6824.8014,-960.7722 6907.8611,-986.1851 7229.9727,-951.713 7250.2341,-949.5447 7271.8795,-946.4539 7292.3478,-943.1696"/>
<polygon fill="#000000" stroke="#000000" points="7292.9854,-946.6119 7302.2901,-941.5449 7291.8565,-939.7035 7292.9854,-946.6119"/>
</g>
<!-- n60 -->
<g id="node61" class="node">
<title>n60</title>
<polygon fill="none" stroke="#000000" points="6065.9727,-817.3455 6374.5734,-850.3455 5757.3719,-850.3455 6065.9727,-817.3455"/>
<text text-anchor="middle" x="6065.9727" y="-835.1455" font-family="Times,serif" font-size="14.00" fill="#000000">aai.tosca_relationships_network_bindsto</text>
</g>
<!-- n60&#45;&gt;n23 -->
<g id="edge66" class="edge">
<title>n60&#45;&gt;n23</title>
<path fill="none" stroke="#000000" d="M5949.8153,-829.7384C5653.5639,-805.2362 4873.6421,-740.7309 4595.3874,-717.7172"/>
<polygon fill="#000000" stroke="#000000" points="4595.5577,-714.2194 4585.3032,-716.8831 4594.9807,-721.1956 4595.5577,-714.2194"/>
</g>
<!-- n61 -->
<g id="node62" class="node">
<title>n61</title>
<polygon fill="none" stroke="#000000" points="2223.9727,-817.3455 2477.531,-850.3455 1970.4144,-850.3455 2223.9727,-817.3455"/>
<text text-anchor="middle" x="2223.9727" y="-835.1455" font-family="Times,serif" font-size="14.00" fill="#000000">aai.tosca_relationships_hostedon</text>
</g>
<!-- n61&#45;&gt;n9 -->
<g id="edge23" class="edge">
<title>n61&#45;&gt;n9</title>
<path fill="none" stroke="#000000" d="M2318.8779,-829.6402C2368.8665,-824.6597 2431.2107,-818.655 2486.9727,-813.8896 2976.7377,-772.0346 3563.1233,-731.6868 3794.7476,-716.134"/>
<polygon fill="#000000" stroke="#000000" points="3795.0978,-719.6185 3804.8411,-715.4569 3794.6292,-712.6342 3795.0978,-719.6185"/>
</g>
<!-- n61&#45;&gt;n23 -->
<g id="edge65" class="edge">
<title>n61&#45;&gt;n23</title>
<path fill="none" stroke="#000000" d="M2313.9199,-829.0072C2364.6642,-823.585 2429.2771,-817.3641 2486.9727,-813.8896 3157.9476,-773.4835 3328.9589,-831.9417 3998.9727,-777.8896 4141.7996,-766.3674 4306.3398,-741.2921 4405.4135,-724.8946"/>
<polygon fill="#000000" stroke="#000000" points="4406.0953,-728.3294 4415.3859,-723.2368 4404.9473,-721.4242 4406.0953,-728.3294"/>
</g>
<!-- n62 -->
<g id="node63" class="node">
<title>n62</title>
<polygon fill="none" stroke="#000000" points="6613.9727,-987.713 6717.4227,-1020.713 6510.5226,-1020.713 6613.9727,-987.713"/>
<text text-anchor="middle" x="6613.9727" y="-1005.513" font-family="Times,serif" font-size="14.00" fill="#000000">rct.vm_info</text>
</g>
<!-- n62&#45;&gt;n8 -->
<g id="edge15" class="edge">
<title>n62&#45;&gt;n8</title>
<path fill="none" stroke="#000000" d="M6592.2416,-994.5998C6576.5917,-983.7159 6554.9803,-968.6859 6536.0086,-955.4917"/>
<polygon fill="#000000" stroke="#000000" points="6537.9956,-952.6104 6527.7874,-949.7742 6533.9988,-958.3572 6537.9956,-952.6104"/>
</g>
<!-- n62&#45;&gt;n21 -->
<g id="edge56" class="edge">
<title>n62&#45;&gt;n21</title>
<path fill="none" stroke="#000000" d="M6619.4909,-989.4542C6629.0522,-949.3265 6643.3512,-859.6699 6594.9727,-813.8896 6525.0219,-747.6959 5821.754,-803.7033 5728.9727,-777.8896 5699.9073,-769.8031 5670.174,-753.8866 5647.0019,-739.4326"/>
<polygon fill="#000000" stroke="#000000" points="5648.7707,-736.4095 5638.4573,-733.984 5645.0071,-742.3117 5648.7707,-736.4095"/>
</g>
<!-- n62&#45;&gt;n50 -->
<g id="edge143" class="edge">
<title>n62&#45;&gt;n50</title>
<path fill="none" stroke="#000000" d="M6659.5895,-1002.2469C6827.295,-974.6975 7400.6335,-879.5797 7412.9727,-864.8013 7451.1966,-819.0212 7382.5234,-767.5759 7329.0624,-736.8681"/>
<polygon fill="#000000" stroke="#000000" points="7330.7281,-733.7894 7320.2964,-731.937 7327.2961,-739.8903 7330.7281,-733.7894"/>
</g>
<!-- n63 -->
<g id="node64" class="node">
<title>n63</title>
<polygon fill="none" stroke="#000000" points="2605.9727,-817.3455 2716.1365,-850.3455 2495.8088,-850.3455 2605.9727,-817.3455"/>
<text text-anchor="middle" x="2605.9727" y="-835.1455" font-family="Times,serif" font-size="14.00" fill="#000000">aai.customer</text>
</g>
<!-- n63&#45;&gt;n9 -->
<g id="edge16" class="edge">
<title>n63&#45;&gt;n9</title>
<path fill="none" stroke="#000000" d="M2646.504,-829.394C2669.412,-824.0928 2698.6508,-817.8641 2724.9727,-813.8896 3117.195,-754.6665 3588.7703,-725.1503 3793.1708,-714.368"/>
<polygon fill="#000000" stroke="#000000" points="3793.4894,-717.8562 3803.2927,-713.8379 3793.1233,-710.8657 3793.4894,-717.8562"/>
</g>
<!-- n63&#45;&gt;n23 -->
<g id="edge59" class="edge">
<title>n63&#45;&gt;n23</title>
<path fill="none" stroke="#000000" d="M2645.3352,-829.0354C2668.3728,-823.4774 2698.1228,-817.1134 2724.9727,-813.8896 3287.3816,-746.3633 3434.4614,-824.6935 3998.9727,-777.8896 4141.7736,-766.05 4306.3213,-741.066 4405.4036,-724.7739"/>
<polygon fill="#000000" stroke="#000000" points="4406.0808,-728.2096 4415.3769,-723.127 4404.9402,-721.3031 4406.0808,-728.2096"/>
</g>
<!-- n64 -->
<g id="node65" class="node">
<title>n64</title>
<polygon fill="none" stroke="#000000" points="2830.9727,-817.3455 2928.0737,-850.3455 2733.8716,-850.3455 2830.9727,-817.3455"/>
<text text-anchor="middle" x="2830.9727" y="-835.1455" font-family="Times,serif" font-size="14.00" fill="#000000">aai.vserver</text>
</g>
<!-- n64&#45;&gt;n9 -->
<g id="edge24" class="edge">
<title>n64&#45;&gt;n9</title>
<path fill="none" stroke="#000000" d="M2867.0389,-829.4786C2887.4327,-824.2039 2913.4782,-817.9735 2936.9727,-813.8896 3247.3428,-759.9409 3619.3552,-728.8664 3794.8651,-716.1774"/>
<polygon fill="#000000" stroke="#000000" points="3795.139,-719.6668 3804.8624,-715.4592 3794.6373,-712.6848 3795.139,-719.6668"/>
</g>
<!-- n64&#45;&gt;n23 -->
<g id="edge67" class="edge">
<title>n64&#45;&gt;n23</title>
<path fill="none" stroke="#000000" d="M2865.9685,-829.0591C2886.4671,-823.509 2912.9671,-817.145 2936.9727,-813.8896 3404.9603,-750.4268 3528.4283,-818.2379 3998.9727,-777.8896 4141.5304,-765.6656 4305.8146,-740.8524 4404.9544,-724.692"/>
<polygon fill="#000000" stroke="#000000" points="4405.6314,-728.1278 4414.9347,-723.0585 4404.5007,-721.2197 4405.6314,-728.1278"/>
</g>
<!-- n65 -->
<g id="node66" class="node">
<title>n65</title>
<polygon fill="none" stroke="#000000" points="6796.9727,-817.3455 6952.0405,-850.3455 6641.9048,-850.3455 6796.9727,-817.3455"/>
<text text-anchor="middle" x="6796.9727" y="-835.1455" font-family="Times,serif" font-size="14.00" fill="#000000">rct.equipment_info</text>
</g>
<!-- n65&#45;&gt;n21 -->
<g id="edge55" class="edge">
<title>n65&#45;&gt;n21</title>
<path fill="none" stroke="#000000" d="M6740.4439,-829.2545C6707.7007,-823.8052 6665.633,-817.4769 6627.9727,-813.8896 6430.925,-795.1206 5929.4399,-828.0926 5737.9727,-777.8896 5706.9127,-769.7457 5674.7898,-753.6376 5649.784,-739.0898"/>
<polygon fill="#000000" stroke="#000000" points="5651.2937,-735.9157 5640.9085,-733.8183 5647.719,-741.9342 5651.2937,-735.9157"/>
</g>
<!-- n65&#45;&gt;n27 -->
<g id="edge77" class="edge">
<title>n65&#45;&gt;n27</title>
<path fill="none" stroke="#000000" d="M6769.8694,-822.8893C6735.2519,-801.8708 6674.7121,-765.1131 6631.9277,-739.1359"/>
<polygon fill="#000000" stroke="#000000" points="6633.7164,-736.1274 6623.3521,-733.9291 6630.0834,-742.1108 6633.7164,-736.1274"/>
</g>
<!-- n65&#45;&gt;n34 -->
<g id="edge104" class="edge">
<title>n65&#45;&gt;n34</title>
<path fill="none" stroke="#000000" d="M6737.3348,-829.921C6637.7491,-814.0925 6447.0494,-783.3562 6432.9727,-777.8896 6408.9557,-768.563 6384.6361,-753.3551 6365.3599,-739.6373"/>
<polygon fill="#000000" stroke="#000000" points="6367.2974,-736.7187 6357.1509,-733.6692 6363.1811,-742.3805 6367.2974,-736.7187"/>
</g>
<!-- n65&#45;&gt;n44 -->
<g id="edge129" class="edge">
<title>n65&#45;&gt;n44</title>
<path fill="none" stroke="#000000" d="M6856.3243,-829.9134C6901.5406,-821.0223 6964.2716,-804.9273 7013.9727,-777.8896 7014.1705,-777.782 7014.3683,-777.6738 7014.566,-777.565"/>
<polygon fill="#000000" stroke="#000000" points="7016.5937,-780.4313 7023.3979,-772.3102 7013.0144,-774.4156 7016.5937,-780.4313"/>
</g>
<!-- n65&#45;&gt;n56 -->
<g id="edge159" class="edge">
<title>n65&#45;&gt;n56</title>
<path fill="none" stroke="#000000" d="M6799.1486,-817.5976C6799.9953,-809.1349 6801.0211,-798.8816 6802.0998,-788.1"/>
<polygon fill="#000000" stroke="#000000" points="6805.5887,-788.385 6803.1017,-778.0863 6798.6235,-787.6881 6805.5887,-788.385"/>
</g>
<!-- n66 -->
<g id="node67" class="node">
<title>n66</title>
<polygon fill="none" stroke="#000000" points="3136.9727,-817.3455 3327.7535,-850.3455 2946.1918,-850.3455 3136.9727,-817.3455"/>
<text text-anchor="middle" x="3136.9727" y="-835.1455" font-family="Times,serif" font-size="14.00" fill="#000000">aai.service_subscription</text>
</g>
<!-- n66&#45;&gt;n9 -->
<g id="edge17" class="edge">
<title>n66&#45;&gt;n9</title>
<path fill="none" stroke="#000000" d="M3201.0304,-828.3794C3336.2823,-805.2256 3651.2622,-751.3041 3806.3886,-724.748"/>
<polygon fill="#000000" stroke="#000000" points="3807.1057,-728.1763 3816.3717,-723.039 3805.9245,-721.2766 3807.1057,-728.1763"/>
</g>
<!-- n66&#45;&gt;n23 -->
<g id="edge60" class="edge">
<title>n66&#45;&gt;n23</title>
<path fill="none" stroke="#000000" d="M3206.2573,-829.2752C3244.6937,-824.0041 3293.3986,-817.8423 3336.9727,-813.8896 3630.4248,-787.2705 3705.6657,-806.0628 3998.9727,-777.8896 4140.9797,-764.2494 4304.7551,-739.9556 4404.0282,-724.2734"/>
<polygon fill="#000000" stroke="#000000" points="4404.6959,-727.7113 4414.0246,-722.6889 4403.5999,-720.7976 4404.6959,-727.7113"/>
</g>
<!-- n67 -->
<g id="node68" class="node">
<title>n67</title>
<polygon fill="none" stroke="#000000" points="3728.9727,-817.3455 4111.7542,-850.3455 3346.1911,-850.3455 3728.9727,-817.3455"/>
<text text-anchor="middle" x="3728.9727" y="-835.1455" font-family="Times,serif" font-size="14.00" fill="#000000">aai.org_onap_relationships_inventory_composedof</text>
</g>
<!-- n67&#45;&gt;n9 -->
<g id="edge22" class="edge">
<title>n67&#45;&gt;n9</title>
<path fill="none" stroke="#000000" d="M3754.7004,-819.3282C3781.9127,-798.1558 3825.1816,-764.4907 3856.6697,-739.9916"/>
<polygon fill="#000000" stroke="#000000" points="3859.0658,-742.5619 3864.8091,-733.6587 3854.7673,-737.0371 3859.0658,-742.5619"/>
</g>
<!-- n67&#45;&gt;n23 -->
<g id="edge64" class="edge">
<title>n67&#45;&gt;n23</title>
<path fill="none" stroke="#000000" d="M3814.9829,-824.7559C3961.0238,-799.9836 4256.0806,-749.9344 4404.8604,-724.6975"/>
<polygon fill="#000000" stroke="#000000" points="4405.6069,-728.1209 4414.8807,-722.9978 4404.4362,-721.2195 4405.6069,-728.1209"/>
</g>
<!-- n68 -->
<g id="node69" class="node">
<title>n68</title>
<polygon fill="none" stroke="#000000" points="5955.9727,-687.4121 6056.0156,-720.4121 5855.9298,-720.4121 5955.9727,-687.4121"/>
<text text-anchor="middle" x="5955.9727" y="-705.2121" font-family="Times,serif" font-size="14.00" fill="#000000">aai.vpls_pe</text>
</g>
<!-- n68&#45;&gt;n42 -->
<g id="edge120" class="edge">
<title>n68&#45;&gt;n42</title>
<path fill="none" stroke="#000000" d="M5956.2341,-687.1851C5956.5685,-658.7578 5957.1519,-609.1675 5957.5498,-575.3386"/>
<polygon fill="#000000" stroke="#000000" points="5961.054,-574.9964 5957.672,-564.9559 5954.0545,-574.914 5961.054,-574.9964"/>
</g>
<!-- n68&#45;&gt;n45 -->
<g id="edge132" class="edge">
<title>n68&#45;&gt;n45</title>
<path fill="none" stroke="#000000" d="M5938.3858,-692.8004C5908.5298,-664.5999 5847.4633,-606.9196 5809.306,-570.878"/>
<polygon fill="#000000" stroke="#000000" points="5811.6691,-568.2956 5801.996,-563.9734 5806.8624,-573.3845 5811.6691,-568.2956"/>
</g>
<!-- n69 -->
<g id="node70" class="node">
<title>n69</title>
<polygon fill="none" stroke="#000000" points="6142.9727,-687.4121 6211.6267,-720.4121 6074.3186,-720.4121 6142.9727,-687.4121"/>
<text text-anchor="middle" x="6142.9727" y="-705.2121" font-family="Times,serif" font-size="14.00" fill="#000000">aai.pnf</text>
</g>
<!-- n69&#45;&gt;n25 -->
<g id="edge73" class="edge">
<title>n69&#45;&gt;n25</title>
<path fill="none" stroke="#000000" d="M6142.9727,-687.1851C6142.9727,-658.7578 6142.9727,-609.1675 6142.9727,-575.3386"/>
<polygon fill="#000000" stroke="#000000" points="6146.4728,-574.9558 6142.9727,-564.9559 6139.4728,-574.9559 6146.4728,-574.9558"/>
</g>
<!-- n69&#45;&gt;n45 -->
<g id="edge130" class="edge">
<title>n69&#45;&gt;n45</title>
<path fill="none" stroke="#000000" d="M6129.7534,-693.6818C6115.4662,-677.7746 6091.1968,-653.7592 6064.9727,-640.9346 5988.5483,-603.5602 5955.9013,-636.6804 5876.9727,-604.9346 5855.1401,-596.1533 5832.9775,-582.4204 5814.9973,-569.7891"/>
<polygon fill="#000000" stroke="#000000" points="5816.6899,-566.6955 5806.5264,-563.7033 5812.6056,-572.3805 5816.6899,-566.6955"/>
</g>
<!-- n70 -->
<g id="node71" class="node">
<title>n70</title>
<polygon fill="none" stroke="#000000" points="1695.9727,-817.3455 1794.9947,-850.3455 1596.9506,-850.3455 1695.9727,-817.3455"/>
<text text-anchor="middle" x="1695.9727" y="-835.1455" font-family="Times,serif" font-size="14.00" fill="#000000">aai.newvce</text>
</g>
<!-- n70&#45;&gt;n9 -->
<g id="edge21" class="edge">
<title>n70&#45;&gt;n9</title>
<path fill="none" stroke="#000000" d="M1731.6521,-829.1387C1752.5452,-823.6152 1779.5452,-817.2512 1803.9727,-813.8896 2181.1983,-761.9784 2279.6432,-796.422 2659.9727,-777.8896 3081.0504,-757.3717 3582.5403,-728.0911 3793.9719,-715.5239"/>
<polygon fill="#000000" stroke="#000000" points="3794.3504,-719.0077 3804.1249,-714.92 3793.9347,-712.02 3794.3504,-719.0077"/>
</g>
<!-- n71 -->
<g id="node72" class="node">
<title>n71</title>
<polygon fill="none" stroke="#000000" points="1882.9727,-817.3455 1952.5614,-850.3455 1813.384,-850.3455 1882.9727,-817.3455"/>
<text text-anchor="middle" x="1882.9727" y="-835.1455" font-family="Times,serif" font-size="14.00" fill="#000000">aai.vce</text>
</g>
<!-- n71&#45;&gt;n9 -->
<g id="edge20" class="edge">
<title>n71&#45;&gt;n9</title>
<path fill="none" stroke="#000000" d="M1908.1762,-829.2418C1923.2408,-823.6795 1942.9055,-817.2419 1960.9727,-813.8896 2266.8308,-757.1395 2349.3377,-794.4938 2659.9727,-777.8896 3080.9491,-755.3876 3582.4929,-727.1635 3793.9553,-715.1987"/>
<polygon fill="#000000" stroke="#000000" points="3794.3235,-718.6836 3804.1098,-714.624 3793.9279,-711.6947 3794.3235,-718.6836"/>
</g>
<!-- n72 -->
<g id="node73" class="node">
<title>n72</title>
<polygon fill="none" stroke="#000000" points="7323.9727,-817.3455 7403.7342,-850.3455 7244.2111,-850.3455 7323.9727,-817.3455"/>
<text text-anchor="middle" x="7323.9727" y="-835.1455" font-family="Times,serif" font-size="14.00" fill="#000000">ref.locid</text>
</g>
<!-- n72&#45;&gt;n1 -->
<g id="edge3" class="edge">
<title>n72&#45;&gt;n1</title>
<path fill="none" stroke="#000000" d="M7290.7948,-831.0666C7265.3131,-825.106 7229.1519,-817.5033 7196.9727,-813.8896 7120.0415,-805.2505 5864.9875,-825.5365 5803.9727,-777.8896 5754.186,-739.011 5814.0591,-681.8974 5765.9727,-640.9346 5705.6095,-589.5137 5187.0295,-556.6113 4960.322,-544.5609"/>
<polygon fill="#000000" stroke="#000000" points="4960.2492,-541.0523 4950.0785,-544.0201 4959.8801,-548.0426 4960.2492,-541.0523"/>
</g>
<!-- n72&#45;&gt;n14 -->
<g id="edge33" class="edge">
<title>n72&#45;&gt;n14</title>
<path fill="none" stroke="#000000" d="M7347.538,-826.7538C7365.8857,-815.9164 7390.8616,-798.749 7406.9727,-777.8896 7447.0681,-725.9771 7421.0299,-692.1815 7461.9727,-640.9346 7486.3781,-610.387 7522.3912,-585.3028 7552.663,-567.7083"/>
<polygon fill="#000000" stroke="#000000" points="7554.4781,-570.7025 7561.4431,-562.7188 7551.0196,-564.6166 7554.4781,-570.7025"/>
</g>
<!-- n72&#45;&gt;n24 -->
<g id="edge71" class="edge">
<title>n72&#45;&gt;n24</title>
<path fill="none" stroke="#000000" d="M7352.29,-828.9172C7378.608,-818.4221 7418.1246,-800.5605 7447.9727,-777.8896 7513.1239,-728.4045 7500.3357,-682.2128 7570.9727,-640.9346 7634.653,-603.7215 7665.156,-633.9329 7732.9727,-604.9346 7754.1597,-595.875 7775.6644,-582.1086 7793.11,-569.527"/>
<polygon fill="#000000" stroke="#000000" points="7795.3541,-572.2211 7801.3289,-563.4717 7791.202,-566.5854 7795.3541,-572.2211"/>
</g>
<!-- n72&#45;&gt;n26 -->
<g id="edge76" class="edge">
<title>n72&#45;&gt;n26</title>
<path fill="none" stroke="#000000" d="M7353.8615,-829.6903C7387.4897,-818.5045 7443.4877,-798.9022 7489.9727,-777.8896 7517.398,-765.4926 7547.0551,-749.6483 7570.8079,-736.3234"/>
<polygon fill="#000000" stroke="#000000" points="7572.621,-739.319 7579.6053,-731.3523 7569.1772,-733.2247 7572.621,-739.319"/>
</g>
<!-- n72&#45;&gt;n27 -->
<g id="edge79" class="edge">
<title>n72&#45;&gt;n27</title>
<path fill="none" stroke="#000000" d="M7289.9344,-831.3635C7264.469,-825.6753 7228.7139,-818.2858 7196.9727,-813.8896 6992.0864,-785.5129 6933.238,-829.6333 6732.9727,-777.8896 6698.7089,-769.0367 6662.5586,-752.7658 6634.3336,-738.3054"/>
<polygon fill="#000000" stroke="#000000" points="6635.9468,-735.1994 6625.4606,-733.6858 6632.7142,-741.4083 6635.9468,-735.1994"/>
</g>
<!-- n72&#45;&gt;n34 -->
<g id="edge103" class="edge">
<title>n72&#45;&gt;n34</title>
<path fill="none" stroke="#000000" d="M7290.2391,-831.1405C7264.7758,-825.3001 7228.8885,-817.8175 7196.9727,-813.8896 7028.2792,-793.1289 6594.8202,-829.7922 6432.9727,-777.8896 6407.8938,-769.8472 6382.9948,-754.2585 6363.6365,-739.984"/>
<polygon fill="#000000" stroke="#000000" points="6365.5082,-737.011 6355.4239,-733.7619 6361.281,-742.5905 6365.5082,-737.011"/>
</g>
<!-- n72&#45;&gt;n38 -->
<g id="edge111" class="edge">
<title>n72&#45;&gt;n38</title>
<path fill="none" stroke="#000000" d="M7342.8742,-824.8952C7356.0375,-813.65 7372.6667,-796.8109 7380.9727,-777.8896 7410.3091,-711.0604 7408.3252,-623.6135 7404.1951,-575.3353"/>
<polygon fill="#000000" stroke="#000000" points="7407.6519,-574.7091 7403.2338,-565.0794 7400.6824,-575.3624 7407.6519,-574.7091"/>
</g>
<!-- n72&#45;&gt;n44 -->
<g id="edge128" class="edge">
<title>n72&#45;&gt;n44</title>
<path fill="none" stroke="#000000" d="M7292.1722,-830.3371C7261.6927,-820.9462 7214.7688,-804.4873 7169.5021,-777.8249"/>
<polygon fill="#000000" stroke="#000000" points="7171.1425,-774.7267 7160.7754,-772.5419 7167.5173,-780.7148 7171.1425,-774.7267"/>
</g>
<!-- n72&#45;&gt;n45 -->
<g id="edge131" class="edge">
<title>n72&#45;&gt;n45</title>
<path fill="none" stroke="#000000" d="M7290.5281,-831.0121C7265.0607,-825.0648 7229.0387,-817.5039 7196.9727,-813.8896 7122.4181,-805.4864 5906.5155,-823.5367 5846.9727,-777.8896 5842.8334,-774.7164 5804.5167,-640.5432 5785.9567,-574.87"/>
<polygon fill="#000000" stroke="#000000" points="5789.2411,-573.6215 5783.1559,-564.9486 5782.5044,-575.5234 5789.2411,-573.6215"/>
</g>
<!-- n72&#45;&gt;n46 -->
<g id="edge134" class="edge">
<title>n72&#45;&gt;n46</title>
<path fill="none" stroke="#000000" d="M7290.7955,-831.0603C7265.3142,-825.0963 7229.1531,-817.4922 7196.9727,-813.8896 7117.9412,-805.0421 5827.8217,-827.8791 5765.9727,-777.8896 5717.2782,-738.5324 5781.6222,-680.3473 5732.9727,-640.9346 5676.3158,-595.0348 4492.1365,-620.8248 4420.9727,-604.9346 4387.2073,-597.395 4351.6347,-582.2048 4323.6094,-568.3452"/>
<polygon fill="#000000" stroke="#000000" points="4324.9134,-565.0831 4314.408,-563.709 4321.7636,-571.3344 4324.9134,-565.0831"/>
</g>
<!-- n72&#45;&gt;n50 -->
<g id="edge145" class="edge">
<title>n72&#45;&gt;n50</title>
<path fill="none" stroke="#000000" d="M7316.7425,-820.1734C7309.2553,-800.3193 7297.3898,-768.8556 7288.2154,-744.5278"/>
<polygon fill="#000000" stroke="#000000" points="7291.3985,-743.0495 7284.595,-734.9277 7284.8488,-745.5195 7291.3985,-743.0495"/>
</g>
<!-- n72&#45;&gt;n56 -->
<g id="edge158" class="edge">
<title>n72&#45;&gt;n56</title>
<path fill="none" stroke="#000000" d="M7289.3428,-831.6076C7263.8869,-826.1144 7228.4011,-818.8616 7196.9727,-813.8896 7060.4088,-792.2852 7014.3179,-834.0441 6887.9727,-777.8896 6887.8749,-777.8462 6887.7771,-777.8026 6887.6794,-777.7588"/>
<polygon fill="#000000" stroke="#000000" points="6889.2087,-774.6102 6878.703,-773.2387 6886.0604,-780.8623 6889.2087,-774.6102"/>
</g>
<!-- n73 -->
<g id="node74" class="node">
<title>n73</title>
<polygon fill="none" stroke="#000000" points="7479.9727,-987.713 7591.1229,-1020.713 7368.8225,-1020.713 7479.9727,-987.713"/>
<text text-anchor="middle" x="7479.9727" y="-1005.513" font-family="Times,serif" font-size="14.00" fill="#000000">rct.vlan_info</text>
</g>
<!-- n73&#45;&gt;n26 -->
<g id="edge74" class="edge">
<title>n73&#45;&gt;n26</title>
<path fill="none" stroke="#000000" d="M7524.8666,-1000.9163C7552.5282,-992.9864 7586.0304,-978.3118 7603.9727,-951.713 7643.0643,-893.7613 7636.94,-809.1336 7627.7927,-756.7609"/>
<polygon fill="#000000" stroke="#000000" points="7631.1982,-755.9292 7625.9354,-746.7339 7624.3153,-757.2042 7631.1982,-755.9292"/>
</g>
<!-- n73&#45;&gt;n54 -->
<g id="edge155" class="edge">
<title>n73&#45;&gt;n54</title>
<path fill="none" stroke="#000000" d="M7461.0061,-993.2248C7449.2954,-983.0443 7433.8915,-969.6532 7419.938,-957.523"/>
<polygon fill="#000000" stroke="#000000" points="7422.2112,-954.8615 7412.3679,-950.9421 7417.6186,-960.1444 7422.2112,-954.8615"/>
</g>
<!-- n74 -->
<g id="node75" class="node">
<title>n74</title>
<polygon fill="none" stroke="#000000" points="5349.9727,-817.3455 5479.897,-850.3455 5220.0483,-850.3455 5349.9727,-817.3455"/>
<text text-anchor="middle" x="5349.9727" y="-835.1455" font-family="Times,serif" font-size="14.00" fill="#000000">aai.generic_vnf</text>
</g>
<!-- n74&#45;&gt;n23 -->
<g id="edge63" class="edge">
<title>n74&#45;&gt;n23</title>
<path fill="none" stroke="#000000" d="M5300.5131,-829.8377C5273.9999,-824.8547 5240.7486,-818.7869 5210.9727,-813.8896 4988.9144,-777.3674 4727.0242,-740.7989 4589.7868,-722.1332"/>
<polygon fill="#000000" stroke="#000000" points="4590.1006,-718.6438 4579.7205,-720.7658 4589.1584,-725.58 4590.1006,-718.6438"/>
</g>
<!-- n75 -->
<g id="node76" class="node">
<title>n75</title>
<polygon fill="none" stroke="#000000" points="7783.9727,-987.713 7958.8004,-1020.713 7609.1449,-1020.713 7783.9727,-987.713"/>
<text text-anchor="middle" x="7783.9727" y="-1005.513" font-family="Times,serif" font-size="14.00" fill="#000000">rct.c_tag_connections</text>
</g>
<!-- n75&#45;&gt;n14 -->
<g id="edge34" class="edge">
<title>n75&#45;&gt;n14</title>
<path fill="none" stroke="#000000" d="M7783.3321,-987.5373C7780.7769,-927.9717 7768.0641,-760.8914 7704.9727,-640.9346 7690.8534,-614.0895 7667.6273,-589.246 7647.5575,-570.8523"/>
<polygon fill="#000000" stroke="#000000" points="7649.8309,-568.1898 7640.0456,-564.1278 7645.162,-573.4054 7649.8309,-568.1898"/>
</g>
<!-- n75&#45;&gt;n17 -->
<g id="edge39" class="edge">
<title>n75&#45;&gt;n17</title>
<path fill="none" stroke="#000000" d="M7717.251,-1000.2838C7682.3795,-995.7241 7638.9533,-990.6208 7599.9727,-987.713 7333.2607,-967.8173 6660.773,-995.7642 6396.9727,-951.713 6390.1566,-950.5748 6383.12,-949.0141 6376.1664,-947.2211"/>
<polygon fill="#000000" stroke="#000000" points="6376.643,-943.7225 6366.0732,-944.4503 6374.7899,-950.4728 6376.643,-943.7225"/>
</g>
<!-- n75&#45;&gt;n24 -->
<g id="edge70" class="edge">
<title>n75&#45;&gt;n24</title>
<path fill="none" stroke="#000000" d="M7786.1453,-987.9718C7793.5942,-913.4319 7818.1487,-667.7197 7827.4021,-575.1224"/>
<polygon fill="#000000" stroke="#000000" points="7830.8902,-575.4158 7828.402,-565.1173 7823.9249,-574.7197 7830.8902,-575.4158"/>
</g>
<!-- n75&#45;&gt;n38 -->
<g id="edge112" class="edge">
<title>n75&#45;&gt;n38</title>
<path fill="none" stroke="#000000" d="M7776.6756,-989.004C7762.4773,-948.5577 7730.3066,-856.1681 7704.9727,-777.8896 7685.3687,-717.3161 7710.1432,-683.6945 7662.9727,-640.9346 7603.1728,-586.7262 7558.3982,-638.4497 7484.9727,-604.9346 7466.2354,-596.3819 7447.8326,-582.9965 7432.9685,-570.546"/>
<polygon fill="#000000" stroke="#000000" points="7434.9554,-567.6379 7425.095,-563.7618 7430.386,-572.9409 7434.9554,-567.6379"/>
</g>
<!-- n75&#45;&gt;n54 -->
<g id="edge153" class="edge">
<title>n75&#45;&gt;n54</title>
<path fill="none" stroke="#000000" d="M7728.3544,-998.1088C7661.964,-984.2572 7550.1237,-960.9229 7471.9655,-944.616"/>
<polygon fill="#000000" stroke="#000000" points="7472.6321,-941.1798 7462.128,-942.5635 7471.2024,-948.0322 7472.6321,-941.1798"/>
</g>
<!-- n76 -->
<g id="node77" class="node">
<title>n76</title>
<polygon fill="none" stroke="#000000" points="6860.9727,-376.7446 6992.8696,-409.7446 6729.0757,-409.7446 6860.9727,-376.7446"/>
<text text-anchor="middle" x="6860.9727" y="-394.5446" font-family="Times,serif" font-size="14.00" fill="#000000">ref.instar_adiod</text>
</g>
<!-- n76&#45;&gt;n19 -->
<g id="edge43" class="edge">
<title>n76&#45;&gt;n19</title>
<path fill="none" stroke="#000000" d="M6822.4565,-386.3246C6794.328,-377.682 6755.1244,-366.5173 6719.9727,-359.6377 6652.1286,-346.3599 6467.2848,-363.7383 6410.9727,-323.6377 6366.3481,-291.86 6346.2389,-227.5027 6338.0122,-190.2382"/>
<polygon fill="#000000" stroke="#000000" points="6341.3592,-189.1389 6335.9112,-180.0521 6334.5035,-190.553 6341.3592,-189.1389"/>
</g>
<!-- n76&#45;&gt;n28 -->
<g id="edge81" class="edge">
<title>n76&#45;&gt;n28</title>
<path fill="none" stroke="#000000" d="M6823.1289,-386.1014C6794.9974,-377.2318 6755.5006,-365.8824 6719.9727,-359.6377 6618.1132,-341.7339 6350.5051,-365.5843 6255.9727,-323.6377 6255.8763,-323.595 6255.78,-323.5521 6255.6838,-323.5092"/>
<polygon fill="#000000" stroke="#000000" points="6257.3273,-320.4149 6246.7911,-319.3016 6254.3333,-326.7424 6257.3273,-320.4149"/>
</g>
<!-- n76&#45;&gt;n37 -->
<g id="edge107" class="edge">
<title>n76&#45;&gt;n37</title>
<path fill="none" stroke="#000000" d="M6823.779,-385.945C6795.6407,-376.8732 6755.8491,-365.3389 6719.9727,-359.6377 6631.4387,-345.5686 5988.6785,-373.188 5913.9727,-323.6377 5868.1928,-293.2732 5848.9335,-227.814 5841.3893,-190.1168"/>
<polygon fill="#000000" stroke="#000000" points="5844.746,-189.0207 5839.4835,-179.8253 5837.863,-190.2955 5844.746,-189.0207"/>
</g>
<!-- n76&#45;&gt;n47 -->
<g id="edge137" class="edge">
<title>n76&#45;&gt;n47</title>
<path fill="none" stroke="#000000" d="M6835.9199,-382.8314C6771.7226,-342.0539 6601.0574,-233.6491 6525.2069,-185.4697"/>
<polygon fill="#000000" stroke="#000000" points="6526.7581,-182.3086 6516.4404,-179.9013 6523.0049,-188.2174 6526.7581,-182.3086"/>
</g>
<!-- n77 -->
<g id="node78" class="node">
<title>n77</title>
<polygon fill="none" stroke="#000000" points="4494.9727,-817.3455 4860.415,-850.3455 4129.5303,-850.3455 4494.9727,-817.3455"/>
<text text-anchor="middle" x="4494.9727" y="-835.1455" font-family="Times,serif" font-size="14.00" fill="#000000">aai.org_onap_relationships_inventory_belongsto</text>
</g>
<!-- n77&#45;&gt;n9 -->
<g id="edge19" class="edge">
<title>n77&#45;&gt;n9</title>
<path fill="none" stroke="#000000" d="M4423.3142,-823.8016C4311.972,-799.6495 4097.9606,-753.2268 3979.6803,-727.5697"/>
<polygon fill="#000000" stroke="#000000" points="3980.1018,-724.0798 3969.5871,-725.3803 3978.6178,-730.9207 3980.1018,-724.0798"/>
</g>
<!-- n77&#45;&gt;n23 -->
<g id="edge62" class="edge">
<title>n77&#45;&gt;n23</title>
<path fill="none" stroke="#000000" d="M4494.9727,-817.3041C4494.9727,-797.5888 4494.9727,-768.3274 4494.9727,-745.25"/>
<polygon fill="#000000" stroke="#000000" points="4498.4728,-745.1385 4494.9727,-735.1386 4491.4728,-745.1386 4498.4728,-745.1385"/>
</g>
<!-- n78 -->
<g id="node79" class="node">
<title>n78</title>
<polygon fill="none" stroke="#000000" points="5039.9727,-817.3455 5202.22,-850.3455 4877.7253,-850.3455 5039.9727,-817.3455"/>
<text text-anchor="middle" x="5039.9727" y="-835.1455" font-family="Times,serif" font-size="14.00" fill="#000000">aai.service_instance</text>
</g>
<!-- n78&#45;&gt;n9 -->
<g id="edge18" class="edge">
<title>n78&#45;&gt;n9</title>
<path fill="none" stroke="#000000" d="M4980.3626,-829.3886C4947.5681,-824.184 4906.1086,-818.0496 4868.9727,-813.8896 4657.6912,-790.2221 4603.3764,-800.4385 4391.9727,-777.8896 4250.3256,-762.7812 4086.7811,-738.956 3987.4148,-723.7645"/>
<polygon fill="#000000" stroke="#000000" points="3987.8225,-720.2862 3977.4076,-722.2305 3986.7618,-727.2054 3987.8225,-720.2862"/>
</g>
<!-- n78&#45;&gt;n23 -->
<g id="edge61" class="edge">
<title>n78&#45;&gt;n23</title>
<path fill="none" stroke="#000000" d="M4990.1628,-827.4703C4895.6904,-804.9472 4689.7291,-755.844 4575.4335,-728.5948"/>
<polygon fill="#000000" stroke="#000000" points="4576.2175,-725.1837 4565.6784,-726.2691 4574.5941,-731.9928 4576.2175,-725.1837"/>
</g>
<!-- n79 -->
<g id="node80" class="node">
<title>n79</title>
<polygon fill="none" stroke="#000000" points="7176.9727,-987.713 7350.8659,-1020.713 7003.0795,-1020.713 7176.9727,-987.713"/>
<text text-anchor="middle" x="7176.9727" y="-1005.513" font-family="Times,serif" font-size="14.00" fill="#000000">rct.s_tag_connections</text>
</g>
<!-- n79&#45;&gt;n14 -->
<g id="edge32" class="edge">
<title>n79&#45;&gt;n14</title>
<path fill="none" stroke="#000000" d="M7244.3205,-1000.406C7341.9064,-986.6327 7512.1268,-961.4075 7521.9727,-951.713 7621.6106,-853.6074 7536.0767,-776.3403 7570.9727,-640.9346 7576.8396,-618.1691 7586.027,-593.4474 7593.8983,-574.0972"/>
<polygon fill="#000000" stroke="#000000" points="7597.1622,-575.3633 7597.7528,-564.7849 7590.6943,-572.6861 7597.1622,-575.3633"/>
</g>
<!-- n79&#45;&gt;n17 -->
<g id="edge40" class="edge">
<title>n79&#45;&gt;n17</title>
<path fill="none" stroke="#000000" d="M7083.6227,-1005.4281C6906.1188,-996.8411 6526.128,-976.2327 6396.9727,-951.713 6390.2818,-950.4428 6383.3675,-948.8152 6376.5224,-946.9982"/>
<polygon fill="#000000" stroke="#000000" points="6377.1504,-943.5397 6366.5774,-944.2202 6375.2671,-950.2816 6377.1504,-943.5397"/>
</g>
<!-- n79&#45;&gt;n26 -->
<g id="edge75" class="edge">
<title>n79&#45;&gt;n26</title>
<path fill="none" stroke="#000000" d="M7248.3741,-1001.1944C7357.5189,-987.8714 7554.5116,-962.5123 7565.9727,-951.713 7618.8793,-901.8615 7624.1435,-812.1459 7621.6212,-756.9826"/>
<polygon fill="#000000" stroke="#000000" points="7625.1028,-756.5553 7621.0472,-746.7674 7618.1138,-756.9481 7625.1028,-756.5553"/>
</g>
<!-- n79&#45;&gt;n38 -->
<g id="edge110" class="edge">
<title>n79&#45;&gt;n38</title>
<path fill="none" stroke="#000000" d="M7249.5222,-1001.3959C7338.4531,-990.4594 7479.3585,-970.4326 7494.9727,-951.713 7589.5506,-838.3247 7477.0424,-648.8028 7424.3371,-572.6058"/>
<polygon fill="#000000" stroke="#000000" points="7427.1302,-570.4928 7418.5251,-564.3118 7421.3976,-574.5099 7427.1302,-570.4928"/>
</g>
<!-- n79&#45;&gt;n54 -->
<g id="edge154" class="edge">
<title>n79&#45;&gt;n54</title>
<path fill="none" stroke="#000000" d="M7214.4588,-994.5998C7243.9579,-982.7067 7285.736,-965.8631 7320.4347,-951.8737"/>
<polygon fill="#000000" stroke="#000000" points="7322.0518,-954.9955 7330.0176,-948.0101 7319.4343,-948.5033 7322.0518,-954.9955"/>
</g>
<!-- n80 -->
<g id="node81" class="node">
<title>n80</title>
<polygon fill="none" stroke="#000000" stroke-dasharray="1,5" points="8093.9727,-1027.713 7976.7976,-1009.713 8093.9727,-991.713 8211.1478,-1009.713 8093.9727,-1027.713"/>
<text text-anchor="middle" x="8093.9727" y="-1005.513" font-family="Times,serif" font-size="14.00" fill="#000000">l__r_node__r_ifaces</text>
</g>
</g>
</svg>
