<?xml version="1.0" encoding="UTF-8" standalone="no"?>
<!DOCTYPE svg PUBLIC "-//W3C//DTD SVG 1.1//EN"
 "http://www.w3.org/Graphics/SVG/1.1/DTD/svg11.dtd">
<!-- Generated by graphviz version 2.40.1 (20161225.0304)
 -->
<!-- Title: world Pages: 1 -->
<svg width="504pt" height="409pt"
 viewBox="0.00 0.00 504.00 408.78" xmlns="http://www.w3.org/2000/svg" xmlns:xlink="http://www.w3.org/1999/xlink">
<g id="graph0" class="graph" transform="scale(.741 .741) rotate(0) translate(4 547.6875)">
<title>world</title>
<polygon fill="#ffffff" stroke="transparent" points="-4,4 -4,-547.6875 676.1878,-547.6875 676.1878,4 -4,4"/>
<!-- S8 -->
<g id="node1" class="node">
<title>S8</title>
<ellipse fill="none" stroke="#000000" cx="407.8327" cy="-63.1553" rx="27" ry="18"/>
<text text-anchor="middle" x="407.8327" y="-58.9553" font-family="Times,serif" font-size="14.00" fill="#000000">S8</text>
</g>
<!-- 9 -->
<g id="node17" class="node">
<title>9</title>
<ellipse fill="none" stroke="#000000" cx="384.7485" cy="-156.92" rx="27" ry="18"/>
<text text-anchor="middle" x="384.7485" y="-152.72" font-family="Times,serif" font-size="14.00" fill="#000000">9</text>
</g>
<!-- S8&#45;&gt;9 -->
<g id="edge1" class="edge">
<title>S8&#45;&gt;9</title>
<path fill="none" stroke="#000000" d="M403.3819,-81.2341C400.0606,-94.7245 395.4604,-113.41 391.6618,-128.8392"/>
<polygon fill="#000000" stroke="#000000" points="388.1778,-128.35 389.1857,-138.8968 394.9749,-130.0234 388.1778,-128.35"/>
</g>
<!-- S24 -->
<g id="node2" class="node">
<title>S24</title>
<ellipse fill="none" stroke="#000000" cx="445.1461" cy="-58.4276" rx="27" ry="18"/>
<text text-anchor="middle" x="445.1461" y="-54.2276" font-family="Times,serif" font-size="14.00" fill="#000000">S24</text>
</g>
<!-- 25 -->
<g id="node16" class="node">
<title>25</title>
<ellipse fill="none" stroke="#000000" cx="433.4142" cy="-151.7767" rx="27" ry="18"/>
<text text-anchor="middle" x="433.4142" y="-147.5767" font-family="Times,serif" font-size="14.00" fill="#000000">25</text>
</g>
<!-- S24&#45;&gt;25 -->
<g id="edge2" class="edge">
<title>S24&#45;&gt;25</title>
<path fill="none" stroke="#000000" d="M442.8841,-76.4263C441.1962,-89.8569 438.8582,-108.4596 436.9277,-123.8203"/>
<polygon fill="#000000" stroke="#000000" points="433.4437,-123.4749 435.6693,-133.8334 440.389,-124.3479 433.4437,-123.4749"/>
</g>
<!-- 27 -->
<g id="node40" class="node">
<title>27</title>
<ellipse fill="none" stroke="#000000" cx="360.0547" cy="-18" rx="27" ry="18"/>
<text text-anchor="middle" x="360.0547" y="-13.8" font-family="Times,serif" font-size="14.00" fill="#000000">27</text>
</g>
<!-- S24&#45;&gt;27 -->
<g id="edge3" class="edge">
<title>S24&#45;&gt;27</title>
<path fill="none" stroke="#000000" d="M422.7893,-47.8058C413.2136,-43.2562 401.8616,-37.8628 391.4641,-32.9229"/>
<polygon fill="#000000" stroke="#000000" points="392.7965,-29.681 382.2621,-28.5509 389.7925,-36.0037 392.7965,-29.681"/>
</g>
<!-- S1 -->
<g id="node3" class="node">
<title>S1</title>
<ellipse fill="none" stroke="#000000" cx="525.3154" cy="-249.1995" rx="27" ry="18"/>
<text text-anchor="middle" x="525.3154" y="-244.9995" font-family="Times,serif" font-size="14.00" fill="#000000">S1</text>
</g>
<!-- 10 -->
<g id="node14" class="node">
<title>10</title>
<ellipse fill="none" stroke="#000000" cx="456.501" cy="-283.5536" rx="27" ry="18"/>
<text text-anchor="middle" x="456.501" y="-279.3536" font-family="Times,serif" font-size="14.00" fill="#000000">10</text>
</g>
<!-- S1&#45;&gt;10 -->
<g id="edge5" class="edge">
<title>S1&#45;&gt;10</title>
<path fill="none" stroke="#000000" d="M503.5421,-260.0694C498.3961,-262.6384 492.8124,-265.4259 487.3496,-268.1531"/>
<polygon fill="#000000" stroke="#000000" points="485.7526,-265.0384 478.3689,-272.6365 488.8792,-271.3013 485.7526,-265.0384"/>
</g>
<!-- 2 -->
<g id="node15" class="node">
<title>2</title>
<ellipse fill="none" stroke="#000000" cx="448.4207" cy="-306.3304" rx="27" ry="18"/>
<text text-anchor="middle" x="448.4207" y="-302.1304" font-family="Times,serif" font-size="14.00" fill="#000000">2</text>
</g>
<!-- S1&#45;&gt;2 -->
<g id="edge4" class="edge">
<title>S1&#45;&gt;2</title>
<path fill="none" stroke="#000000" d="M507.0924,-262.7388C497.4204,-269.9248 485.3612,-278.8845 474.6955,-286.8089"/>
<polygon fill="#000000" stroke="#000000" points="472.4525,-284.115 466.5128,-292.8884 476.6272,-289.7339 472.4525,-284.115"/>
</g>
<!-- S35 -->
<g id="node4" class="node">
<title>S35</title>
<ellipse fill="none" stroke="#000000" cx="234.6076" cy="-520.215" rx="27" ry="18"/>
<text text-anchor="middle" x="234.6076" y="-516.015" font-family="Times,serif" font-size="14.00" fill="#000000">S35</text>
</g>
<!-- 43 -->
<g id="node11" class="node">
<title>43</title>
<ellipse fill="none" stroke="#000000" cx="221.2794" cy="-440.6235" rx="27" ry="18"/>
<text text-anchor="middle" x="221.2794" y="-436.4235" font-family="Times,serif" font-size="14.00" fill="#000000">43</text>
</g>
<!-- S35&#45;&gt;43 -->
<g id="edge6" class="edge">
<title>S35&#45;&gt;43</title>
<path fill="none" stroke="#000000" d="M231.5832,-502.1545C229.9302,-492.2835 227.8463,-479.8389 225.9858,-468.7285"/>
<polygon fill="#000000" stroke="#000000" points="229.3954,-467.8971 224.2918,-458.6126 222.4915,-469.0533 229.3954,-467.8971"/>
</g>
<!-- 36 -->
<g id="node13" class="node">
<title>36</title>
<ellipse fill="none" stroke="#000000" cx="327.0845" cy="-525.6875" rx="27" ry="18"/>
<text text-anchor="middle" x="327.0845" y="-521.4875" font-family="Times,serif" font-size="14.00" fill="#000000">36</text>
</g>
<!-- S35&#45;&gt;36 -->
<g id="edge7" class="edge">
<title>S35&#45;&gt;36</title>
<path fill="none" stroke="#000000" d="M261.8535,-521.8274C270.602,-522.3451 280.4483,-522.9277 289.7885,-523.4804"/>
<polygon fill="#000000" stroke="#000000" points="289.8439,-526.9897 300.0333,-524.0867 290.2575,-520.002 289.8439,-526.9897"/>
</g>
<!-- S30 -->
<g id="node5" class="node">
<title>S30</title>
<ellipse fill="none" stroke="#000000" cx="607.2131" cy="-234.4679" rx="27" ry="18"/>
<text text-anchor="middle" x="607.2131" y="-230.2679" font-family="Times,serif" font-size="14.00" fill="#000000">S30</text>
</g>
<!-- 33 -->
<g id="node28" class="node">
<title>33</title>
<ellipse fill="none" stroke="#000000" cx="645.1878" cy="-338.6008" rx="27" ry="18"/>
<text text-anchor="middle" x="645.1878" y="-334.4008" font-family="Times,serif" font-size="14.00" fill="#000000">33</text>
</g>
<!-- S30&#45;&gt;33 -->
<g id="edge9" class="edge">
<title>S30&#45;&gt;33</title>
<path fill="none" stroke="#000000" d="M613.655,-252.1326C619.5743,-268.3642 628.4378,-292.6696 635.2617,-311.3817"/>
<polygon fill="#000000" stroke="#000000" points="632,-312.6538 638.7143,-320.8495 638.5764,-310.2555 632,-312.6538"/>
</g>
<!-- 31 -->
<g id="node34" class="node">
<title>31</title>
<ellipse fill="none" stroke="#000000" cx="512.4841" cy="-185.8962" rx="27" ry="18"/>
<text text-anchor="middle" x="512.4841" y="-181.6962" font-family="Times,serif" font-size="14.00" fill="#000000">31</text>
</g>
<!-- S30&#45;&gt;31 -->
<g id="edge8" class="edge">
<title>S30&#45;&gt;31</title>
<path fill="none" stroke="#000000" d="M585.7177,-223.4462C573.1215,-216.9876 557.0042,-208.7236 543.0981,-201.5933"/>
<polygon fill="#000000" stroke="#000000" points="544.39,-198.3224 533.8946,-196.8742 541.1961,-204.5514 544.39,-198.3224"/>
</g>
<!-- T8 -->
<g id="node6" class="node">
<title>T8</title>
<ellipse fill="none" stroke="#000000" cx="27" cy="-96.314" rx="27" ry="18"/>
<text text-anchor="middle" x="27" y="-92.114" font-family="Times,serif" font-size="14.00" fill="#000000">T8</text>
</g>
<!-- T24 -->
<g id="node7" class="node">
<title>T24</title>
<ellipse fill="none" stroke="#000000" cx="316.7859" cy="-97.57" rx="27" ry="18"/>
<text text-anchor="middle" x="316.7859" y="-93.37" font-family="Times,serif" font-size="14.00" fill="#000000">T24</text>
</g>
<!-- T1 -->
<g id="node8" class="node">
<title>T1</title>
<ellipse fill="none" stroke="#000000" cx="424.2062" cy="-223.9516" rx="27" ry="18"/>
<text text-anchor="middle" x="424.2062" y="-219.7516" font-family="Times,serif" font-size="14.00" fill="#000000">T1</text>
</g>
<!-- T35 -->
<g id="node9" class="node">
<title>T35</title>
<ellipse fill="none" stroke="#000000" cx="178.1656" cy="-264.7405" rx="27" ry="18"/>
<text text-anchor="middle" x="178.1656" y="-260.5405" font-family="Times,serif" font-size="14.00" fill="#000000">T35</text>
</g>
<!-- T30 -->
<g id="node10" class="node">
<title>T30</title>
<ellipse fill="none" stroke="#000000" cx="615.7601" cy="-416.0341" rx="27" ry="18"/>
<text text-anchor="middle" x="615.7601" y="-411.8341" font-family="Times,serif" font-size="14.00" fill="#000000">T30</text>
</g>
<!-- 38 -->
<g id="node18" class="node">
<title>38</title>
<ellipse fill="none" stroke="#000000" cx="257.6821" cy="-357.4496" rx="27" ry="18"/>
<text text-anchor="middle" x="257.6821" y="-353.2496" font-family="Times,serif" font-size="14.00" fill="#000000">38</text>
</g>
<!-- 43&#45;&gt;38 -->
<g id="edge43" class="edge">
<title>43&#45;&gt;38</title>
<path fill="none" stroke="#000000" d="M228.9995,-422.9844C233.9556,-411.6606 240.4844,-396.7433 246.061,-384.0018"/>
<polygon fill="#000000" stroke="#000000" points="249.2948,-385.3423 250.098,-374.778 242.8821,-382.5357 249.2948,-385.3423"/>
</g>
<!-- 40 -->
<g id="node19" class="node">
<title>40</title>
<ellipse fill="none" stroke="#000000" cx="298.6397" cy="-479.488" rx="27" ry="18"/>
<text text-anchor="middle" x="298.6397" y="-475.288" font-family="Times,serif" font-size="14.00" fill="#000000">40</text>
</g>
<!-- 43&#45;&gt;40 -->
<g id="edge44" class="edge">
<title>43&#45;&gt;40</title>
<path fill="none" stroke="#000000" d="M243.2409,-451.6565C250.9004,-455.5045 259.643,-459.8967 267.8841,-464.0369"/>
<polygon fill="#000000" stroke="#000000" points="266.3842,-467.2002 276.8911,-468.5619 269.5266,-460.9451 266.3842,-467.2002"/>
</g>
<!-- 37 -->
<g id="node12" class="node">
<title>37</title>
<ellipse fill="none" stroke="#000000" cx="335.8813" cy="-430.8894" rx="27" ry="18"/>
<text text-anchor="middle" x="335.8813" y="-426.6894" font-family="Times,serif" font-size="14.00" fill="#000000">37</text>
</g>
<!-- 37&#45;&gt;38 -->
<g id="edge37" class="edge">
<title>37&#45;&gt;38</title>
<path fill="none" stroke="#000000" d="M320.0566,-416.0277C308.8212,-405.4762 293.5545,-391.1387 280.9372,-379.2894"/>
<polygon fill="#000000" stroke="#000000" points="283.1688,-376.5836 273.4833,-372.2891 278.3767,-381.6862 283.1688,-376.5836"/>
</g>
<!-- 37&#45;&gt;40 -->
<g id="edge38" class="edge">
<title>37&#45;&gt;40</title>
<path fill="none" stroke="#000000" d="M323.4804,-447.072C321.4914,-449.6676 319.3955,-452.4027 317.2989,-455.1386"/>
<polygon fill="#000000" stroke="#000000" points="314.4179,-453.144 311.1135,-463.2103 319.9741,-457.4018 314.4179,-453.144"/>
</g>
<!-- 39 -->
<g id="node30" class="node">
<title>39</title>
<ellipse fill="none" stroke="#000000" cx="384.3815" cy="-372.7609" rx="27" ry="18"/>
<text text-anchor="middle" x="384.3815" y="-368.5609" font-family="Times,serif" font-size="14.00" fill="#000000">39</text>
</g>
<!-- 37&#45;&gt;39 -->
<g id="edge39" class="edge">
<title>37&#45;&gt;39</title>
<path fill="none" stroke="#000000" d="M349.1342,-415.0055C353.946,-409.2385 359.4907,-402.5931 364.7368,-396.3055"/>
<polygon fill="#000000" stroke="#000000" points="367.4255,-398.5462 371.1446,-388.6256 362.0507,-394.0616 367.4255,-398.5462"/>
</g>
<!-- 41 -->
<g id="node37" class="node">
<title>41</title>
<ellipse fill="none" stroke="#000000" cx="440.2329" cy="-483.452" rx="27" ry="18"/>
<text text-anchor="middle" x="440.2329" y="-479.252" font-family="Times,serif" font-size="14.00" fill="#000000">41</text>
</g>
<!-- 37&#45;&gt;41 -->
<g id="edge40" class="edge">
<title>37&#45;&gt;41</title>
<path fill="none" stroke="#000000" d="M357.5031,-441.7804C372.4741,-449.3214 392.6271,-459.4726 409.294,-467.8679"/>
<polygon fill="#000000" stroke="#000000" points="408.1334,-471.2021 418.6389,-472.5749 411.2824,-464.9504 408.1334,-471.2021"/>
</g>
<!-- 19 -->
<g id="node29" class="node">
<title>19</title>
<ellipse fill="none" stroke="#000000" cx="371.4289" cy="-449.6688" rx="27" ry="18"/>
<text text-anchor="middle" x="371.4289" y="-445.4688" font-family="Times,serif" font-size="14.00" fill="#000000">19</text>
</g>
<!-- 36&#45;&gt;19 -->
<g id="edge45" class="edge">
<title>36&#45;&gt;19</title>
<path fill="none" stroke="#000000" d="M336.9259,-508.8164C342.6671,-498.9746 350.0254,-486.3602 356.471,-475.3108"/>
<polygon fill="#000000" stroke="#000000" points="359.5994,-476.894 361.6149,-466.4926 353.5529,-473.3668 359.5994,-476.894"/>
</g>
<!-- 10&#45;&gt;T1 -->
<g id="edge20" class="edge">
<title>10&#45;&gt;T1</title>
<path fill="none" stroke="#000000" d="M447.16,-266.3142C444.3913,-261.2044 441.2958,-255.4915 438.2966,-249.9563"/>
<polygon fill="#000000" stroke="#000000" points="441.256,-248.0712 433.4147,-240.9463 435.1014,-251.4061 441.256,-248.0712"/>
</g>
<!-- 13 -->
<g id="node20" class="node">
<title>13</title>
<ellipse fill="none" stroke="#000000" cx="418.8795" cy="-379.1463" rx="27" ry="18"/>
<text text-anchor="middle" x="418.8795" y="-374.9463" font-family="Times,serif" font-size="14.00" fill="#000000">13</text>
</g>
<!-- 10&#45;&gt;13 -->
<g id="edge21" class="edge">
<title>10&#45;&gt;13</title>
<path fill="none" stroke="#000000" d="M449.6007,-301.0867C443.9792,-315.3702 435.9471,-335.7792 429.5056,-352.1465"/>
<polygon fill="#000000" stroke="#000000" points="426.1415,-351.1372 425.7361,-361.7243 432.6552,-353.7008 426.1415,-351.1372"/>
</g>
<!-- 12 -->
<g id="node22" class="node">
<title>12</title>
<ellipse fill="none" stroke="#000000" cx="537.5097" cy="-354.3223" rx="27" ry="18"/>
<text text-anchor="middle" x="537.5097" y="-350.1223" font-family="Times,serif" font-size="14.00" fill="#000000">12</text>
</g>
<!-- 10&#45;&gt;12 -->
<g id="edge22" class="edge">
<title>10&#45;&gt;12</title>
<path fill="none" stroke="#000000" d="M472.8943,-297.8747C484.4568,-307.9755 500.1406,-321.6768 513.1607,-333.0511"/>
<polygon fill="#000000" stroke="#000000" points="511.029,-335.8363 520.8627,-339.7796 515.6344,-330.5646 511.029,-335.8363"/>
</g>
<!-- 11 -->
<g id="node26" class="node">
<title>11</title>
<ellipse fill="none" stroke="#000000" cx="364.428" cy="-261.3086" rx="27" ry="18"/>
<text text-anchor="middle" x="364.428" y="-257.1086" font-family="Times,serif" font-size="14.00" fill="#000000">11</text>
</g>
<!-- 10&#45;&gt;11 -->
<g id="edge23" class="edge">
<title>10&#45;&gt;11</title>
<path fill="none" stroke="#000000" d="M430.8536,-277.3571C421.2757,-275.0431 410.2224,-272.3726 399.9147,-269.8823"/>
<polygon fill="#000000" stroke="#000000" points="400.4803,-266.4183 389.938,-267.4719 398.8363,-273.2225 400.4803,-266.4183"/>
</g>
<!-- 14 -->
<g id="node31" class="node">
<title>14</title>
<ellipse fill="none" stroke="#000000" cx="506.4167" cy="-316.6649" rx="27" ry="18"/>
<text text-anchor="middle" x="506.4167" y="-312.4649" font-family="Times,serif" font-size="14.00" fill="#000000">14</text>
</g>
<!-- 10&#45;&gt;14 -->
<g id="edge24" class="edge">
<title>10&#45;&gt;14</title>
<path fill="none" stroke="#000000" d="M475.657,-296.2606C476.5918,-296.8807 477.538,-297.5084 478.4901,-298.1399"/>
<polygon fill="#000000" stroke="#000000" points="476.7964,-301.2164 487.0644,-303.8277 480.6659,-295.3831 476.7964,-301.2164"/>
</g>
<!-- 2&#45;&gt;T1 -->
<g id="edge15" class="edge">
<title>2&#45;&gt;T1</title>
<path fill="none" stroke="#000000" d="M443.1665,-288.4554C439.9934,-277.6604 435.8838,-263.6796 432.3023,-251.4949"/>
<polygon fill="#000000" stroke="#000000" points="435.6282,-250.3987 429.4501,-241.7917 428.9123,-252.3728 435.6282,-250.3987"/>
</g>
<!-- 17 -->
<g id="node21" class="node">
<title>17</title>
<ellipse fill="none" stroke="#000000" cx="430.5343" cy="-405.939" rx="27" ry="18"/>
<text text-anchor="middle" x="430.5343" y="-401.739" font-family="Times,serif" font-size="14.00" fill="#000000">17</text>
</g>
<!-- 2&#45;&gt;17 -->
<g id="edge16" class="edge">
<title>2&#45;&gt;17</title>
<path fill="none" stroke="#000000" d="M445.14,-324.6002C442.4674,-339.4837 438.6487,-360.7501 435.5862,-377.805"/>
<polygon fill="#000000" stroke="#000000" points="432.1167,-377.3239 433.7941,-387.7851 439.0065,-378.5611 432.1167,-377.3239"/>
</g>
<!-- 18 -->
<g id="node23" class="node">
<title>18</title>
<ellipse fill="none" stroke="#000000" cx="511.0794" cy="-378.2842" rx="27" ry="18"/>
<text text-anchor="middle" x="511.0794" y="-374.0842" font-family="Times,serif" font-size="14.00" fill="#000000">18</text>
</g>
<!-- 2&#45;&gt;18 -->
<g id="edge17" class="edge">
<title>2&#45;&gt;18</title>
<path fill="none" stroke="#000000" d="M462.0167,-321.9433C470.3918,-331.5608 481.2879,-344.0733 490.6838,-354.8631"/>
<polygon fill="#000000" stroke="#000000" points="488.3032,-357.4589 497.5099,-362.7017 493.5822,-352.8618 488.3032,-357.4589"/>
</g>
<!-- 3 -->
<g id="node27" class="node">
<title>3</title>
<ellipse fill="none" stroke="#000000" cx="347.6457" cy="-296.6728" rx="27" ry="18"/>
<text text-anchor="middle" x="347.6457" y="-292.4728" font-family="Times,serif" font-size="14.00" fill="#000000">3</text>
</g>
<!-- 2&#45;&gt;3 -->
<g id="edge18" class="edge">
<title>2&#45;&gt;3</title>
<path fill="none" stroke="#000000" d="M421.6794,-303.7677C410.2906,-302.6763 396.8174,-301.3851 384.5075,-300.2054"/>
<polygon fill="#000000" stroke="#000000" points="384.8002,-296.7175 374.5119,-299.2475 384.1324,-303.6856 384.8002,-296.7175"/>
</g>
<!-- 16 -->
<g id="node32" class="node">
<title>16</title>
<ellipse fill="none" stroke="#000000" cx="511.3871" cy="-284.4617" rx="27" ry="18"/>
<text text-anchor="middle" x="511.3871" y="-280.2617" font-family="Times,serif" font-size="14.00" fill="#000000">16</text>
</g>
<!-- 2&#45;&gt;16 -->
<g id="edge19" class="edge">
<title>2&#45;&gt;16</title>
<path fill="none" stroke="#000000" d="M472.5851,-297.938C474.2541,-297.3583 475.9522,-296.7685 477.6591,-296.1757"/>
<polygon fill="#000000" stroke="#000000" points="479.0932,-299.3828 487.3913,-292.7956 476.7965,-292.7703 479.0932,-299.3828"/>
</g>
<!-- 25&#45;&gt;T1 -->
<g id="edge12" class="edge">
<title>25&#45;&gt;T1</title>
<path fill="none" stroke="#000000" d="M431.0906,-169.9895C430.0907,-177.8274 428.8987,-187.1702 427.7899,-195.8614"/>
<polygon fill="#000000" stroke="#000000" points="424.2909,-195.6321 426.4971,-205.9947 431.2346,-196.518 424.2909,-195.6321"/>
</g>
<!-- 26 -->
<g id="node24" class="node">
<title>26</title>
<ellipse fill="none" stroke="#000000" cx="324.8605" cy="-161.0469" rx="27" ry="18"/>
<text text-anchor="middle" x="324.8605" y="-156.8469" font-family="Times,serif" font-size="14.00" fill="#000000">26</text>
</g>
<!-- 25&#45;&gt;26 -->
<g id="edge13" class="edge">
<title>25&#45;&gt;26</title>
<path fill="none" stroke="#000000" d="M406.5807,-154.0682C393.1418,-155.2159 376.6568,-156.6237 362.0215,-157.8735"/>
<polygon fill="#000000" stroke="#000000" points="361.4274,-154.4114 351.7615,-158.7496 362.0231,-161.386 361.4274,-154.4114"/>
</g>
<!-- 9&#45;&gt;T1 -->
<g id="edge11" class="edge">
<title>9&#45;&gt;T1</title>
<path fill="none" stroke="#000000" d="M394.7054,-173.8349C399.0181,-181.1615 404.1643,-189.9041 408.9419,-198.0203"/>
<polygon fill="#000000" stroke="#000000" points="406.0262,-199.9666 414.1153,-206.8089 412.0586,-196.4156 406.0262,-199.9666"/>
</g>
<!-- 42 -->
<g id="node25" class="node">
<title>42</title>
<ellipse fill="none" stroke="#000000" cx="282.8862" cy="-175.0131" rx="27" ry="18"/>
<text text-anchor="middle" x="282.8862" y="-170.8131" font-family="Times,serif" font-size="14.00" fill="#000000">42</text>
</g>
<!-- 9&#45;&gt;42 -->
<g id="edge10" class="edge">
<title>9&#45;&gt;42</title>
<path fill="none" stroke="#000000" d="M358.5164,-161.5794C346.516,-163.711 332.1018,-166.2713 319.0905,-168.5824"/>
<polygon fill="#000000" stroke="#000000" points="318.2631,-165.1745 309.0294,-170.3695 319.4874,-172.0666 318.2631,-165.1745"/>
</g>
<!-- 4 -->
<g id="node33" class="node">
<title>4</title>
<ellipse fill="none" stroke="#000000" cx="289.0884" cy="-256.4439" rx="27" ry="18"/>
<text text-anchor="middle" x="289.0884" y="-252.2439" font-family="Times,serif" font-size="14.00" fill="#000000">4</text>
</g>
<!-- 38&#45;&gt;4 -->
<g id="edge50" class="edge">
<title>38&#45;&gt;4</title>
<path fill="none" stroke="#000000" d="M263.2969,-339.3918C268.0756,-324.0231 275.0158,-301.7027 280.4934,-284.0861"/>
<polygon fill="#000000" stroke="#000000" points="283.8951,-284.9336 283.5222,-274.3453 277.2108,-282.8551 283.8951,-284.9336"/>
</g>
<!-- 40&#45;&gt;19 -->
<g id="edge51" class="edge">
<title>40&#45;&gt;19</title>
<path fill="none" stroke="#000000" d="M321.6707,-470.053C327.1138,-467.8231 333.0201,-465.4035 338.7985,-463.0363"/>
<polygon fill="#000000" stroke="#000000" points="340.3711,-466.1744 348.2979,-459.1447 337.7175,-459.6969 340.3711,-466.1744"/>
</g>
<!-- 13&#45;&gt;19 -->
<g id="edge41" class="edge">
<title>13&#45;&gt;19</title>
<path fill="none" stroke="#000000" d="M407.6344,-395.8591C401.8432,-404.4662 394.6651,-415.1344 388.2314,-424.6964"/>
<polygon fill="#000000" stroke="#000000" points="385.2719,-422.8252 382.5933,-433.0759 391.0797,-426.733 385.2719,-422.8252"/>
</g>
<!-- 17&#45;&gt;19 -->
<g id="edge33" class="edge">
<title>17&#45;&gt;19</title>
<path fill="none" stroke="#000000" d="M412.1569,-419.5357C407.6668,-422.8577 402.7731,-426.4784 397.9853,-430.0207"/>
<polygon fill="#000000" stroke="#000000" points="395.5491,-427.4693 389.5918,-436.2307 399.7125,-433.0966 395.5491,-427.4693"/>
</g>
<!-- 29 -->
<g id="node44" class="node">
<title>29</title>
<ellipse fill="none" stroke="#000000" cx="525.0387" cy="-445.1221" rx="27" ry="18"/>
<text text-anchor="middle" x="525.0387" y="-440.9221" font-family="Times,serif" font-size="14.00" fill="#000000">29</text>
</g>
<!-- 12&#45;&gt;29 -->
<g id="edge42" class="edge">
<title>12&#45;&gt;29</title>
<path fill="none" stroke="#000000" d="M535.0458,-372.2614C533.298,-384.9876 530.9167,-402.3251 528.9156,-416.895"/>
<polygon fill="#000000" stroke="#000000" points="525.4335,-416.5262 527.5402,-426.9095 532.3684,-417.4788 525.4335,-416.5262"/>
</g>
<!-- 18&#45;&gt;29 -->
<g id="edge34" class="edge">
<title>18&#45;&gt;29</title>
<path fill="none" stroke="#000000" d="M514.8202,-396.1955C516.1659,-402.6386 517.718,-410.0699 519.1995,-417.1638"/>
<polygon fill="#000000" stroke="#000000" points="515.817,-418.0881 521.2876,-427.1613 522.6691,-416.657 515.817,-418.0881"/>
</g>
<!-- 26&#45;&gt;4 -->
<g id="edge30" class="edge">
<title>26&#45;&gt;4</title>
<path fill="none" stroke="#000000" d="M318.2993,-178.5442C312.9877,-192.7093 305.4123,-212.9113 299.3071,-229.1927"/>
<polygon fill="#000000" stroke="#000000" points="295.9631,-228.1422 295.7291,-238.7345 302.5174,-230.6 295.9631,-228.1422"/>
</g>
<!-- 42&#45;&gt;4 -->
<g id="edge29" class="edge">
<title>42&#45;&gt;4</title>
<path fill="none" stroke="#000000" d="M284.2626,-193.0852C285.0496,-203.4169 286.0537,-216.6009 286.9421,-228.2641"/>
<polygon fill="#000000" stroke="#000000" points="283.4663,-228.717 287.7158,-238.4222 290.4461,-228.1853 283.4663,-228.717"/>
</g>
<!-- 11&#45;&gt;4 -->
<g id="edge35" class="edge">
<title>11&#45;&gt;4</title>
<path fill="none" stroke="#000000" d="M337.2287,-259.5523C333.6645,-259.3222 329.9645,-259.0833 326.2707,-258.8448"/>
<polygon fill="#000000" stroke="#000000" points="326.2,-255.333 315.9952,-258.1813 325.7489,-262.3185 326.2,-255.333"/>
</g>
<!-- 3&#45;&gt;4 -->
<g id="edge31" class="edge">
<title>3&#45;&gt;4</title>
<path fill="none" stroke="#000000" d="M328.7955,-283.7227C324.8252,-280.9951 320.5606,-278.0653 316.3519,-275.1739"/>
<polygon fill="#000000" stroke="#000000" points="318.1276,-272.1474 307.9033,-269.3697 314.1638,-277.9171 318.1276,-272.1474"/>
</g>
<!-- 33&#45;&gt;T30 -->
<g id="edge27" class="edge">
<title>33&#45;&gt;T30</title>
<path fill="none" stroke="#000000" d="M638.5102,-356.1716C634.8229,-365.874 630.1644,-378.132 626.0246,-389.0251"/>
<polygon fill="#000000" stroke="#000000" points="622.6921,-387.9417 622.4112,-398.5328 629.2355,-390.4285 622.6921,-387.9417"/>
</g>
<!-- 34 -->
<g id="node35" class="node">
<title>34</title>
<ellipse fill="none" stroke="#000000" cx="607.1776" cy="-442.9294" rx="27" ry="18"/>
<text text-anchor="middle" x="607.1776" y="-438.7294" font-family="Times,serif" font-size="14.00" fill="#000000">34</text>
</g>
<!-- 33&#45;&gt;34 -->
<g id="edge28" class="edge">
<title>33&#45;&gt;34</title>
<path fill="none" stroke="#000000" d="M638.7399,-356.2988C632.8151,-372.5608 623.9433,-396.9118 617.113,-415.6591"/>
<polygon fill="#000000" stroke="#000000" points="613.7919,-414.5506 613.6571,-425.1446 620.369,-416.9469 613.7919,-414.5506"/>
</g>
<!-- 21 -->
<g id="node36" class="node">
<title>21</title>
<ellipse fill="none" stroke="#000000" cx="282.0721" cy="-382.9679" rx="27" ry="18"/>
<text text-anchor="middle" x="282.0721" y="-378.7679" font-family="Times,serif" font-size="14.00" fill="#000000">21</text>
</g>
<!-- 19&#45;&gt;21 -->
<g id="edge53" class="edge">
<title>19&#45;&gt;21</title>
<path fill="none" stroke="#000000" d="M353.3462,-436.1709C340.3867,-426.4971 322.7333,-413.3197 308.2381,-402.4997"/>
<polygon fill="#000000" stroke="#000000" points="310.2351,-399.6228 300.1278,-396.4458 306.0478,-405.2324 310.2351,-399.6228"/>
</g>
<!-- 28 -->
<g id="node38" class="node">
<title>28</title>
<ellipse fill="none" stroke="#000000" cx="460.9084" cy="-503.2346" rx="27" ry="18"/>
<text text-anchor="middle" x="460.9084" y="-499.0346" font-family="Times,serif" font-size="14.00" fill="#000000">28</text>
</g>
<!-- 19&#45;&gt;28 -->
<g id="edge54" class="edge">
<title>19&#45;&gt;28</title>
<path fill="none" stroke="#000000" d="M391.7332,-461.8237C403.6313,-468.9464 418.8554,-478.0601 431.9909,-485.9235"/>
<polygon fill="#000000" stroke="#000000" points="430.3066,-488.9944 440.6844,-491.1278 433.9021,-482.9883 430.3066,-488.9944"/>
</g>
<!-- 20 -->
<g id="node39" class="node">
<title>20</title>
<ellipse fill="none" stroke="#000000" cx="356.7162" cy="-382.297" rx="27" ry="18"/>
<text text-anchor="middle" x="356.7162" y="-378.097" font-family="Times,serif" font-size="14.00" fill="#000000">20</text>
</g>
<!-- 19&#45;&gt;20 -->
<g id="edge55" class="edge">
<title>19&#45;&gt;20</title>
<path fill="none" stroke="#000000" d="M367.4861,-431.6144C366.0679,-425.1198 364.432,-417.6292 362.8705,-410.4786"/>
<polygon fill="#000000" stroke="#000000" points="366.2228,-409.4242 360.6698,-400.4012 359.384,-410.9178 366.2228,-409.4242"/>
</g>
<!-- 15 -->
<g id="node45" class="node">
<title>15</title>
<ellipse fill="none" stroke="#000000" cx="415.2374" cy="-300.6243" rx="27" ry="18"/>
<text text-anchor="middle" x="415.2374" y="-296.4243" font-family="Times,serif" font-size="14.00" fill="#000000">15</text>
</g>
<!-- 39&#45;&gt;15 -->
<g id="edge48" class="edge">
<title>39&#45;&gt;15</title>
<path fill="none" stroke="#000000" d="M391.8509,-355.2987C395.425,-346.9429 399.7838,-336.7526 403.7656,-327.4437"/>
<polygon fill="#000000" stroke="#000000" points="407.0151,-328.7465 407.7299,-318.1758 400.5791,-325.9935 407.0151,-328.7465"/>
</g>
<!-- 14&#45;&gt;15 -->
<g id="edge36" class="edge">
<title>14&#45;&gt;15</title>
<path fill="none" stroke="#000000" d="M480.0439,-312.0253C471.1603,-310.4625 461.085,-308.69 451.5712,-307.0163"/>
<polygon fill="#000000" stroke="#000000" points="452.0062,-303.5391 441.551,-305.2535 450.7933,-310.4333 452.0062,-303.5391"/>
</g>
<!-- 16&#45;&gt;15 -->
<g id="edge32" class="edge">
<title>16&#45;&gt;15</title>
<path fill="none" stroke="#000000" d="M485.1138,-288.8782C474.7267,-290.6243 462.6169,-292.6599 451.4243,-294.5414"/>
<polygon fill="#000000" stroke="#000000" points="450.7604,-291.1038 441.479,-296.2132 451.9209,-298.0069 450.7604,-291.1038"/>
</g>
<!-- 5 -->
<g id="node41" class="node">
<title>5</title>
<ellipse fill="none" stroke="#000000" cx="235.2317" cy="-207.5223" rx="27" ry="18"/>
<text text-anchor="middle" x="235.2317" y="-203.3223" font-family="Times,serif" font-size="14.00" fill="#000000">5</text>
</g>
<!-- 4&#45;&gt;5 -->
<g id="edge52" class="edge">
<title>4&#45;&gt;5</title>
<path fill="none" stroke="#000000" d="M272.9296,-241.7658C268.5628,-237.7991 263.7436,-233.4215 259.0519,-229.1598"/>
<polygon fill="#000000" stroke="#000000" points="261.1345,-226.3231 251.3791,-222.19 256.4278,-231.5046 261.1345,-226.3231"/>
</g>
<!-- 31&#45;&gt;T1 -->
<g id="edge25" class="edge">
<title>31&#45;&gt;T1</title>
<path fill="none" stroke="#000000" d="M489.7504,-195.6964C479.6353,-200.0568 467.5414,-205.2704 456.5118,-210.025"/>
<polygon fill="#000000" stroke="#000000" points="454.9672,-206.8795 447.1697,-214.0523 457.7384,-213.3076 454.9672,-206.8795"/>
</g>
<!-- 32 -->
<g id="node43" class="node">
<title>32</title>
<ellipse fill="none" stroke="#000000" cx="424.1484" cy="-138.8914" rx="27" ry="18"/>
<text text-anchor="middle" x="424.1484" y="-134.6914" font-family="Times,serif" font-size="14.00" fill="#000000">32</text>
</g>
<!-- 31&#45;&gt;32 -->
<g id="edge26" class="edge">
<title>31&#45;&gt;32</title>
<path fill="none" stroke="#000000" d="M491.1005,-174.5176C480.0331,-168.6285 466.3373,-161.3407 454.222,-154.894"/>
<polygon fill="#000000" stroke="#000000" points="455.8072,-151.7729 445.3351,-150.1652 452.5189,-157.9525 455.8072,-151.7729"/>
</g>
<!-- 34&#45;&gt;29 -->
<g id="edge47" class="edge">
<title>34&#45;&gt;29</title>
<path fill="none" stroke="#000000" d="M579.8266,-443.6595C574.2847,-443.8075 568.3663,-443.9655 562.5441,-444.1209"/>
<polygon fill="#000000" stroke="#000000" points="562.1734,-440.6294 552.2704,-444.3952 562.3602,-447.627 562.1734,-440.6294"/>
</g>
<!-- 22 -->
<g id="node42" class="node">
<title>22</title>
<ellipse fill="none" stroke="#000000" cx="261.0563" cy="-281.7618" rx="27" ry="18"/>
<text text-anchor="middle" x="261.0563" y="-277.5618" font-family="Times,serif" font-size="14.00" fill="#000000">22</text>
</g>
<!-- 21&#45;&gt;22 -->
<g id="edge59" class="edge">
<title>21&#45;&gt;22</title>
<path fill="none" stroke="#000000" d="M278.3149,-364.8743C275.1471,-349.619 270.5598,-327.5279 266.9107,-309.955"/>
<polygon fill="#000000" stroke="#000000" points="270.2411,-308.7783 264.781,-299.6988 263.3873,-310.2016 270.2411,-308.7783"/>
</g>
<!-- 41&#45;&gt;29 -->
<g id="edge49" class="edge">
<title>41&#45;&gt;29</title>
<path fill="none" stroke="#000000" d="M462.9593,-473.1803C472.2546,-468.9791 483.1707,-464.0453 493.2355,-459.4963"/>
<polygon fill="#000000" stroke="#000000" points="494.8727,-462.5973 502.5437,-455.2893 491.9897,-456.2185 494.8727,-462.5973"/>
</g>
<!-- 28&#45;&gt;29 -->
<g id="edge61" class="edge">
<title>28&#45;&gt;29</title>
<path fill="none" stroke="#000000" d="M477.0912,-488.5704C484.3268,-482.0137 493.0059,-474.1491 500.9794,-466.9238"/>
<polygon fill="#000000" stroke="#000000" points="503.578,-469.2922 508.6381,-459.9838 498.8776,-464.1051 503.578,-469.2922"/>
</g>
<!-- 20&#45;&gt;15 -->
<g id="edge60" class="edge">
<title>20&#45;&gt;15</title>
<path fill="none" stroke="#000000" d="M368.5588,-365.7693C376.8876,-354.1456 388.1766,-338.3906 397.5664,-325.2861"/>
<polygon fill="#000000" stroke="#000000" points="400.4329,-327.2947 403.4124,-317.1274 394.7428,-323.2175 400.4329,-327.2947"/>
</g>
<!-- 27&#45;&gt;T24 -->
<g id="edge14" class="edge">
<title>27&#45;&gt;T24</title>
<path fill="none" stroke="#000000" d="M350.666,-35.2655C344.9,-45.8689 337.4037,-59.6544 330.9288,-71.5616"/>
<polygon fill="#000000" stroke="#000000" points="327.7101,-70.1544 326.0076,-80.6116 333.8597,-73.4985 327.7101,-70.1544"/>
</g>
<!-- 5&#45;&gt;T35 -->
<g id="edge56" class="edge">
<title>5&#45;&gt;T35</title>
<path fill="none" stroke="#000000" d="M220.2382,-222.5557C214.257,-228.5529 207.2424,-235.5863 200.674,-242.1721"/>
<polygon fill="#000000" stroke="#000000" points="197.8406,-240.0568 193.2571,-249.6089 202.7969,-244.9999 197.8406,-240.0568"/>
</g>
<!-- 6 -->
<g id="node46" class="node">
<title>6</title>
<ellipse fill="none" stroke="#000000" cx="163.7253" cy="-163.2698" rx="27" ry="18"/>
<text text-anchor="middle" x="163.7253" y="-159.0698" font-family="Times,serif" font-size="14.00" fill="#000000">6</text>
</g>
<!-- 5&#45;&gt;6 -->
<g id="edge57" class="edge">
<title>5&#45;&gt;6</title>
<path fill="none" stroke="#000000" d="M215.3132,-195.1955C208.1847,-190.784 200.0038,-185.7211 192.2888,-180.9466"/>
<polygon fill="#000000" stroke="#000000" points="193.8822,-177.8168 183.537,-175.5305 190.1985,-183.7691 193.8822,-177.8168"/>
</g>
<!-- 23 -->
<g id="node47" class="node">
<title>23</title>
<ellipse fill="none" stroke="#000000" cx="332.2217" cy="-197.7852" rx="27" ry="18"/>
<text text-anchor="middle" x="332.2217" y="-193.5852" font-family="Times,serif" font-size="14.00" fill="#000000">23</text>
</g>
<!-- 5&#45;&gt;23 -->
<g id="edge58" class="edge">
<title>5&#45;&gt;23</title>
<path fill="none" stroke="#000000" d="M261.9914,-204.8358C272.1893,-203.812 284.0041,-202.6259 295.0003,-201.522"/>
<polygon fill="#000000" stroke="#000000" points="295.6123,-204.9782 305.2126,-200.4967 294.913,-198.0132 295.6123,-204.9782"/>
</g>
<!-- 22&#45;&gt;T35 -->
<g id="edge64" class="edge">
<title>22&#45;&gt;T35</title>
<path fill="none" stroke="#000000" d="M234.8292,-276.3762C228.2645,-275.0281 221.1083,-273.5586 214.1601,-272.1319"/>
<polygon fill="#000000" stroke="#000000" points="214.7218,-268.6742 204.2222,-270.0911 213.3137,-275.5312 214.7218,-268.6742"/>
</g>
<!-- 22&#45;&gt;23 -->
<g id="edge65" class="edge">
<title>22&#45;&gt;23</title>
<path fill="none" stroke="#000000" d="M274.442,-265.9665C285.0778,-253.416 300.119,-235.6671 312.1887,-221.4246"/>
<polygon fill="#000000" stroke="#000000" points="315.1011,-223.4016 318.8961,-213.5098 309.7607,-218.876 315.1011,-223.4016"/>
</g>
<!-- 32&#45;&gt;23 -->
<g id="edge46" class="edge">
<title>32&#45;&gt;23</title>
<path fill="none" stroke="#000000" d="M404.6531,-151.3813C391.8214,-159.602 374.8148,-170.4975 360.5055,-179.665"/>
<polygon fill="#000000" stroke="#000000" points="358.5379,-176.7687 352.0058,-185.1103 362.3141,-182.6629 358.5379,-176.7687"/>
</g>
<!-- 29&#45;&gt;T30 -->
<g id="edge66" class="edge">
<title>29&#45;&gt;T30</title>
<path fill="none" stroke="#000000" d="M549.8287,-437.1737C559.6089,-434.0379 571.0078,-430.383 581.55,-427.0029"/>
<polygon fill="#000000" stroke="#000000" points="582.8603,-430.2583 591.3141,-423.8722 580.723,-423.5926 582.8603,-430.2583"/>
</g>
<!-- 15&#45;&gt;T1 -->
<g id="edge63" class="edge">
<title>15&#45;&gt;T1</title>
<path fill="none" stroke="#000000" d="M417.3629,-282.4539C418.424,-273.3827 419.7314,-262.2057 420.9182,-252.0598"/>
<polygon fill="#000000" stroke="#000000" points="424.4103,-252.3304 422.096,-241.9915 417.4577,-251.5171 424.4103,-252.3304"/>
</g>
<!-- 7 -->
<g id="node48" class="node">
<title>7</title>
<ellipse fill="none" stroke="#000000" cx="95.3656" cy="-126.6363" rx="27" ry="18"/>
<text text-anchor="middle" x="95.3656" y="-122.4363" font-family="Times,serif" font-size="14.00" fill="#000000">7</text>
</g>
<!-- 6&#45;&gt;7 -->
<g id="edge62" class="edge">
<title>6&#45;&gt;7</title>
<path fill="none" stroke="#000000" d="M142.4706,-151.8796C137.248,-149.0808 131.5533,-146.0291 125.986,-143.0456"/>
<polygon fill="#000000" stroke="#000000" points="127.31,-139.7842 116.8426,-138.1457 124.0035,-145.9541 127.31,-139.7842"/>
</g>
<!-- 23&#45;&gt;T24 -->
<g id="edge68" class="edge">
<title>23&#45;&gt;T24</title>
<path fill="none" stroke="#000000" d="M329.4621,-179.8688C327.1498,-164.8561 323.8076,-143.1578 321.1356,-125.8099"/>
<polygon fill="#000000" stroke="#000000" points="324.5553,-125.0199 319.5737,-115.6693 317.6369,-126.0856 324.5553,-125.0199"/>
</g>
<!-- 23&#45;&gt;T1 -->
<g id="edge69" class="edge">
<title>23&#45;&gt;T1</title>
<path fill="none" stroke="#000000" d="M357.3569,-204.9353C367.1926,-207.7332 378.643,-210.9904 389.2589,-214.0103"/>
<polygon fill="#000000" stroke="#000000" points="388.5253,-217.4404 399.1014,-216.8101 390.4406,-210.7075 388.5253,-217.4404"/>
</g>
<!-- 7&#45;&gt;T8 -->
<g id="edge67" class="edge">
<title>7&#45;&gt;T8</title>
<path fill="none" stroke="#000000" d="M72.6008,-116.5394C68.265,-114.6163 63.6522,-112.5704 59.0894,-110.5467"/>
<polygon fill="#000000" stroke="#000000" points="60.4587,-107.3252 49.8984,-106.4702 57.6206,-113.7241 60.4587,-107.3252"/>
</g>
</g>
</svg>
