<?xml version="1.0" encoding="UTF-8" standalone="no"?>
<!DOCTYPE svg PUBLIC "-//W3C//DTD SVG 1.1//EN"
 "http://www.w3.org/Graphics/SVG/1.1/DTD/svg11.dtd">
<!-- Generated by graphviz version 2.40.1 (20161225.0304)
 -->
<!-- Title: G Pages: 1 -->
<svg width="365pt" height="247pt"
 viewBox="0.00 0.00 364.66 246.71" xmlns="http://www.w3.org/2000/svg" xmlns:xlink="http://www.w3.org/1999/xlink">
<g id="graph0" class="graph" transform="scale(1 1) rotate(0) translate(4 242.7141)">
<title>G</title>
<polygon fill="#ffffff" stroke="transparent" points="-4,4 -4,-242.7141 360.6569,-242.7141 360.6569,4 -4,4"/>
<!-- run -->
<g id="node1" class="node">
<title>run</title>
<ellipse fill="none" stroke="#000000" cx="102.5717" cy="-110.0316" rx="27" ry="18"/>
<text text-anchor="middle" x="102.5717" y="-105.8316" font-family="Times,serif" font-size="14.00" fill="#000000">run</text>
</g>
<!-- intr -->
<g id="node2" class="node">
<title>intr</title>
<ellipse fill="none" stroke="#000000" cx="45.4669" cy="-59.7051" rx="27" ry="18"/>
<text text-anchor="middle" x="45.4669" y="-55.5051" font-family="Times,serif" font-size="14.00" fill="#000000">intr</text>
</g>
<!-- run&#45;&#45;intr -->
<g id="edge1" class="edge">
<title>run&#45;&#45;intr</title>
<path fill="none" stroke="#000000" d="M86.0546,-95.4751C78.5443,-88.8563 69.6742,-81.039 62.1447,-74.4032"/>
</g>
<!-- kernel -->
<g id="node4" class="node">
<title>kernel</title>
<ellipse fill="none" stroke="#000000" cx="178.3027" cy="-137.5362" rx="32.4063" ry="18"/>
<text text-anchor="middle" x="178.3027" y="-133.3362" font-family="Times,serif" font-size="14.00" fill="#000000">kernel</text>
</g>
<!-- run&#45;&#45;kernel -->
<g id="edge4" class="edge">
<title>run&#45;&#45;kernel</title>
<path fill="none" stroke="#000000" d="M126.5334,-118.7342C134.3335,-121.5671 143.0476,-124.732 151.069,-127.6453"/>
</g>
<!-- runbl -->
<g id="node3" class="node">
<title>runbl</title>
<ellipse fill="none" stroke="#000000" cx="28.774" cy="-126.1636" rx="28.5497" ry="18"/>
<text text-anchor="middle" x="28.774" y="-121.9636" font-family="Times,serif" font-size="14.00" fill="#000000">runbl</text>
</g>
<!-- intr&#45;&#45;runbl -->
<g id="edge2" class="edge">
<title>intr&#45;&#45;runbl</title>
<path fill="none" stroke="#000000" d="M40.9935,-77.5148C38.5984,-87.0501 35.6566,-98.762 33.2597,-108.3048"/>
</g>
<!-- runbl&#45;&#45;run -->
<g id="edge3" class="edge">
<title>runbl&#45;&#45;run</title>
<path fill="none" stroke="#000000" d="M56.2535,-120.1567C62.9742,-118.6875 70.1417,-117.1207 76.7803,-115.6696"/>
</g>
<!-- zombie -->
<g id="node5" class="node">
<title>zombie</title>
<ellipse fill="none" stroke="#000000" cx="165.6618" cy="-220.7141" rx="36.2732" ry="18"/>
<text text-anchor="middle" x="165.6618" y="-216.5141" font-family="Times,serif" font-size="14.00" fill="#000000">zombie</text>
</g>
<!-- kernel&#45;&#45;zombie -->
<g id="edge5" class="edge">
<title>kernel&#45;&#45;zombie</title>
<path fill="none" stroke="#000000" d="M175.5598,-155.5846C173.4395,-169.5363 170.5183,-188.7581 168.3993,-202.7009"/>
</g>
<!-- sleep -->
<g id="node6" class="node">
<title>sleep</title>
<ellipse fill="none" stroke="#000000" cx="250.6016" cy="-154.968" rx="28.0565" ry="18"/>
<text text-anchor="middle" x="250.6016" y="-150.768" font-family="Times,serif" font-size="14.00" fill="#000000">sleep</text>
</g>
<!-- kernel&#45;&#45;sleep -->
<g id="edge6" class="edge">
<title>kernel&#45;&#45;sleep</title>
<path fill="none" stroke="#000000" d="M208.1268,-144.727C213.4169,-146.0025 218.8935,-147.3229 224.0843,-148.5745"/>
</g>
<!-- runmem -->
<g id="node7" class="node">
<title>runmem</title>
<ellipse fill="none" stroke="#000000" cx="237.5205" cy="-83.3591" rx="39.6558" ry="18"/>
<text text-anchor="middle" x="237.5205" y="-79.1591" font-family="Times,serif" font-size="14.00" fill="#000000">runmem</text>
</g>
<!-- kernel&#45;&#45;runmem -->
<g id="edge7" class="edge">
<title>kernel&#45;&#45;runmem</title>
<path fill="none" stroke="#000000" d="M195.1137,-122.1562C202.7732,-115.1486 211.8475,-106.8467 219.6327,-99.7242"/>
</g>
<!-- sleep&#45;&#45;runmem -->
<g id="edge13" class="edge">
<title>sleep&#45;&#45;runmem</title>
<path fill="none" stroke="#000000" d="M247.3007,-136.898C245.3328,-126.1255 242.8415,-112.4876 240.8658,-101.6723"/>
</g>
<!-- swap -->
<g id="node8" class="node">
<title>swap</title>
<ellipse fill="none" stroke="#000000" cx="328.3011" cy="-148.2538" rx="28.0651" ry="18"/>
<text text-anchor="middle" x="328.3011" y="-144.0538" font-family="Times,serif" font-size="14.00" fill="#000000">swap</text>
</g>
<!-- sleep&#45;&#45;swap -->
<g id="edge8" class="edge">
<title>sleep&#45;&#45;swap</title>
<path fill="none" stroke="#000000" d="M278.6529,-152.544C285.6079,-151.943 293.0645,-151.2987 300.03,-150.6968"/>
</g>
<!-- runswap -->
<g id="node9" class="node">
<title>runswap</title>
<ellipse fill="none" stroke="#000000" cx="316.5868" cy="-73.4565" rx="40.1403" ry="18"/>
<text text-anchor="middle" x="316.5868" y="-69.2565" font-family="Times,serif" font-size="14.00" fill="#000000">runswap</text>
</g>
<!-- swap&#45;&#45;runswap -->
<g id="edge9" class="edge">
<title>swap&#45;&#45;runswap</title>
<path fill="none" stroke="#000000" d="M325.4654,-130.1475C323.6372,-118.4739 321.2681,-103.3471 319.437,-91.6553"/>
</g>
<!-- runswap&#45;&#45;runmem -->
<g id="edge11" class="edge">
<title>runswap&#45;&#45;runmem</title>
<path fill="none" stroke="#000000" d="M277.9801,-78.2917C277.3529,-78.3703 276.7254,-78.4489 276.0982,-78.5274"/>
</g>
<!-- new -->
<g id="node10" class="node">
<title>new</title>
<ellipse fill="none" stroke="#000000" cx="275.6644" cy="-18" rx="27" ry="18"/>
<text text-anchor="middle" x="275.6644" y="-13.8" font-family="Times,serif" font-size="14.00" fill="#000000">new</text>
</g>
<!-- runswap&#45;&#45;new -->
<g id="edge10" class="edge">
<title>runswap&#45;&#45;new</title>
<path fill="none" stroke="#000000" d="M303.863,-56.2137C298.7012,-49.2187 292.769,-41.1795 287.6815,-34.2851"/>
</g>
<!-- new&#45;&#45;runmem -->
<g id="edge12" class="edge">
<title>new&#45;&#45;runmem</title>
<path fill="none" stroke="#000000" d="M265.8414,-34.8316C260.2788,-44.363 253.3312,-56.2676 247.7094,-65.9004"/>
</g>
</g>
</svg>
